<?xml version="1.0" encoding="utf-8" ?>
<svg baseProfile="full" height="2722.72px" version="1.1" viewBox="0 0 4000.00 2722.72" width="4000.00px" xmlns="http://www.w3.org/2000/svg" xmlns:ev="http://www.w3.org/2001/xml-events" xmlns:xlink="http://www.w3.org/1999/xlink"><defs /><g transform="translate(-27887.0140429752,32585.61530541089) scale(0.12704483697402852,-0.12704483697402852)"><line stroke="black" stroke-width="15.742473662340606" x1="220905.4923437337" x2="250673.2351688085" y1="241198.0119434477" y2="241198.0119434475" /><line stroke="black" stroke-width="15.742473662340606" x1="220905.4923437337" x2="250673.2351688086" y1="254198.0119434477" y2="254198.0119434477" /><path d="M 222699.1559562598,253998.0119434477 L 223699.1559562612,253998.0119434477 L 223699.1559562612,254398.0119434477 L 222699.1559562598,254398.0119434477" fill="none" stroke="black" stroke-width="15.742473662340606" /><path d="M 225699.1559562598,254398.0119434477 L 225299.1559562612,254398.0119434477 L 225299.1559562612,253998.0119434477 L 225699.1559562598,253998.0119434477" fill="none" stroke="black" stroke-width="15.742473662340606" /><line stroke="black" stroke-width="15.742473662340606" x1="222499.1559562612" x2="222499.1559562607" y1="255830.0119434477" y2="236461.1390986626" /><path d="M 222699.1559562607,247398.0119434487 L 222699.1559562607,245198.0119434477 L 222299.1559562607,245198.0119434477 L 222299.1559562607,247398.0119434487" fill="none" stroke="black" stroke-width="15.742473662340606" /><path d="M 222699.1559562598,241398.0119434477 L 223699.1559562579,241398.0119434477 L 223699.1559562579,240998.0119434477 L 222699.1559562598,240998.0119434484" fill="none" stroke="black" stroke-width="15.742473662340606" /><path d="M 222299.1559562598,241398.0119434487 L 222299.1559562607,243598.0119434477 L 222699.1559562607,243598.0119434477 L 222699.1559562598,241398.0119434487" fill="none" stroke="black" stroke-width="15.742473662340606" /><line stroke="black" stroke-width="15.742473662340606" x1="225899.1559562602" x2="225899.1559562607" y1="255830.0119434477" y2="236461.1390986626" /><line stroke="black" stroke-width="15.742473662340606" x1="229499.1559562607" x2="229499.1559562607" y1="255830.0119434477" y2="236461.1390986626" /><line stroke="black" stroke-width="15.742473662340606" x1="233099.1559562616" x2="233099.1559562607" y1="255830.0119434477" y2="236461.1390986626" /><line stroke="black" stroke-width="15.742473662340606" x1="239299.1559562607" x2="239299.1559562612" y1="255830.0119434475" y2="236461.1390986626" /><line stroke="black" stroke-width="15.742473662340606" x1="236299.1559562607" x2="236299.1559562612" y1="245816.0119434477" y2="236461.1390986626" /><line stroke="black" stroke-width="15.742473662340606" x1="242899.1559562607" x2="242899.1559562607" y1="255830.0119434477" y2="236461.1390986626" /><line stroke="black" stroke-width="15.742473662340606" x1="246499.1559562607" x2="246499.1559562607" y1="255830.0119434477" y2="236461.1390986626" /><line stroke="black" stroke-width="15.742473662340606" x1="249899.1559562607" x2="249899.1559562607" y1="255830.0119434477" y2="236461.1390986626" /><path d="M 250099.1559562607,253998.0119434487 L 250099.1559562607,252998.0119434477 L 249699.1559562607,252998.0119434477 L 249699.1559562607,253998.0119434487" fill="none" stroke="black" stroke-width="15.742473662340606" /><path d="M 249699.1559562607,247798.0119434487 L 249699.1559562607,251398.0119434477 L 250099.1559562607,251398.0119434477 L 250099.1559562607,247798.0119434487" fill="none" stroke="black" stroke-width="15.742473662340606" /><path d="M 250099.1559562607,247398.0119434487 L 250099.1559562607,245198.0119434477 L 249699.1559562612,245198.0119434477 L 249699.1559562607,247398.0119434487" fill="none" stroke="black" stroke-width="15.742473662340606" /><path d="M 222299.1559562598,240998.0119434487 L 222699.1559562598,240998.0119434487 L 222699.1559562598,241398.0119434487 L 222299.1559562598,241398.0119434487 Z" fill="none" stroke="black" stroke-width="15.742473662340606" /><path d="M 249699.1559562598,240998.0119434487 L 250099.1559562598,240998.0119434487 L 250099.1559562598,241398.0119434487 L 249699.1559562598,241398.0119434487 Z" fill="none" stroke="black" stroke-width="15.742473662340606" /><path d="M 222299.1559562598,247398.0119434487 L 222699.1559562598,247398.0119434487 L 222699.1559562598,247798.0119434487 L 222299.1559562598,247798.0119434487 Z" fill="none" stroke="black" stroke-width="15.742473662340606" /><path d="M 249699.1559562598,247398.0119434487 L 250099.1559562598,247398.0119434487 L 250099.1559562598,247798.0119434487 L 249699.1559562598,247798.0119434487 Z" fill="none" stroke="black" stroke-width="15.742473662340606" /><path d="M 222299.1559562598,253998.0119434487 L 222699.1559562598,253998.0119434487 L 222699.1559562598,254398.0119434487 L 222299.1559562598,254398.0119434487 Z" fill="none" stroke="black" stroke-width="15.742473662340606" /><path d="M 225699.1559562598,253998.0119434487 L 226099.1559562598,253998.0119434487 L 226099.1559562598,254398.0119434487 L 225699.1559562598,254398.0119434487 Z" fill="none" stroke="black" stroke-width="15.742473662340606" /><path d="M 229299.1559562598,253998.0119434487 L 229699.1559562598,253998.0119434487 L 229699.1559562598,254398.0119434487 L 229299.1559562598,254398.0119434487 Z" fill="none" stroke="black" stroke-width="15.742473662340606" /><path d="M 232899.1559562607,253998.0119434487 L 233299.1559562607,253998.0119434487 L 233299.1559562607,254398.0119434487 L 232899.1559562607,254398.0119434487 Z" fill="none" stroke="black" stroke-width="15.742473662340606" /><path d="M 239099.1559562607,253998.0119434477 L 239499.1559562607,253998.0119434477 L 239499.1559562607,254398.0119434477 L 239099.1559562607,254398.0119434477 Z" fill="none" stroke="black" stroke-width="15.742473662340606" /><path d="M 242699.1559562598,253998.0119434487 L 243099.1559562598,253998.0119434487 L 243099.1559562598,254398.0119434487 L 242699.1559562598,254398.0119434487 Z" fill="none" stroke="black" stroke-width="15.742473662340606" /><path d="M 246299.1559562598,253998.0119434487 L 246699.1559562598,253998.0119434487 L 246699.1559562598,254398.0119434487 L 246299.1559562598,254398.0119434487 Z" fill="none" stroke="black" stroke-width="15.742473662340606" /><path d="M 249699.1559562598,253998.0119434487 L 250099.1559562598,253998.0119434487 L 250099.1559562598,254398.0119434487 L 249699.1559562598,254398.0119434487 Z" fill="none" stroke="black" stroke-width="15.742473662340606" /><path d="M 239499.1559562602,245198.0119434477 L 241099.1559562607,245198.0119434477 L 241099.1559562607,245598.0119434477 L 239499.1559562602,245598.0119434452" fill="none" stroke="black" stroke-width="15.742473662340606" /><path d="M 239099.1559562612,245198.0119434473 L 239099.1559562612,244398.011943445 L 239099.1559562612,244398.011943445 L 239099.1559562616,243698.011943448 L 239099.1559562607,243698.0119434477 L 239099.1559562612,238998.0119434482 L 238499.1559562612,238998.0119434482 L 238499.1559562612,238598.0119434482 L 239099.1559562612,238598.0119434482" fill="none" stroke="black" stroke-width="15.742473662340606" /><path d="M 225699.1559562598,247398.0119434487 L 226099.1559562598,247398.0119434487 L 226099.1559562598,247798.0119434487 L 225699.1559562598,247798.0119434487 Z" fill="none" stroke="black" stroke-width="15.742473662340606" /><path d="M 229299.1559562598,247398.0119434487 L 229699.1559562598,247398.0119434487 L 229699.1559562598,247798.0119434487 L 229299.1559562598,247798.0119434487 Z" fill="none" stroke="black" stroke-width="15.742473662340606" /><path d="M 246299.1559562598,247398.0119434487 L 246699.1559562598,247398.0119434487 L 246699.1559562598,247798.0119434487 L 246299.1559562598,247798.0119434487 Z" fill="none" stroke="black" stroke-width="15.742473662340606" /><path d="M 225699.1559562598,240998.0119434487 L 226099.1559562598,240998.0119434487 L 226099.1559562598,241398.0119434487 L 225699.1559562598,241398.0119434487 Z" fill="none" stroke="black" stroke-width="15.742473662340606" /><path d="M 229299.1559562598,245198.0119434489 L 229699.1559562598,245198.0119434489 L 229699.1559562598,245598.0119434489 L 229299.1559562598,245598.0119434489 Z" fill="none" stroke="black" stroke-width="15.742473662340606" /><path d="M 246299.1559562598,240998.0119434487 L 246699.1559562598,240998.0119434487 L 246699.1559562598,241398.0119434487 L 246299.1559562598,241398.0119434487 Z" fill="none" stroke="black" stroke-width="15.742473662340606" /><path d="M 233299.1559562602,253998.0119434473 L 233299.1559562602,247798.0119434482" fill="none" stroke="black" stroke-width="15.742473662340606" /><path d="M 239099.1559562621,254398.0119434477 L 238599.1559562602,254398.0119434477 L 238599.1559562602,253998.0119434477 L 239099.1559562621,253998.0119434477 L 239099.1559562621,247798.0119434487" fill="none" stroke="black" stroke-width="15.742473662340606" /><path d="M 239499.1559562621,253998.0119434477 L 239499.1559562621,247798.0119434487" fill="none" stroke="black" stroke-width="15.742473662340606" /><path d="M 232899.1559562602,247398.0119434484 L 233299.1559562602,247398.0119434484 L 233299.1559562602,247798.0119434484 L 232899.1559562602,247798.0119434484 Z" fill="none" stroke="black" stroke-width="15.742473662340606" /><path d="M 239099.1559562598,247398.0119434487 L 239499.1559562598,247398.0119434487 L 239499.1559562598,247798.0119434487 L 239099.1559562598,247798.0119434487 Z" fill="none" stroke="black" stroke-width="15.742473662340606" /><path d="M 243099.1559562598,247398.0119434487 L 243099.1559562598,245898.0119434487" fill="none" stroke="black" stroke-width="15.742473662340606" /><path d="M 243099.1559562598,247398.0119434487 L 246299.1559562616,247398.0119434487" fill="none" stroke="black" stroke-width="15.742473662340606" /><path d="M 233299.1559562607,245198.0119434477 L 236099.1559562598,245198.0119434477" fill="none" stroke="black" stroke-width="15.742473662340606" /><path d="M 228999.1559562598,238998.0119434487 L 228999.1559562598,243498.0119434475 L 231799.1559562607,243498.0119434475 L 231799.1559562607,243598.0119434475 L 227099.1559562607,243598.0119434475 L 227099.1559562607,243498.0119434477 L 228899.1559562598,243498.0119434475 L 228899.1559562598,238998.0119434487" fill="none" stroke="black" stroke-width="15.742473662340606" /><path d="M 225699.1559562598,240998.0119434477 L 225299.1559562579,240998.0119434477 L 225299.1559562579,241398.0119434477 L 225699.1559562598,241398.0119434477" fill="none" stroke="black" stroke-width="15.742473662340606" /><path d="M 229699.1559562598,245198.0119434475 L 231499.1559562607,245198.0119434475 L 231499.1559562607,245598.0119434475 L 229699.1559562598,245598.0119434477" fill="none" stroke="black" stroke-width="15.742473662340606" /><path d="M 229299.1559562607,247398.0119434477 L 229299.1559562607,245598.0119434489" fill="none" stroke="black" stroke-width="15.742473662340606" /><path d="M 227899.1559562607,247398.0119434477 L 227899.1559562607,245298.0119434491 L 227999.1559562607,245298.0119434491 L 227999.1559562607,245198.0119434491 L 227399.1559562607,245198.0119434494 L 227399.1559562607,245298.0119434494 L 227799.1559562607,245298.0119434494 L 227799.1559562607,247398.0119434477" fill="none" stroke="black" stroke-width="15.742473662340606" /><path d="M 229699.1559562607,245598.0119434489 L 229699.1559562607,247398.0119434477" fill="none" stroke="black" stroke-width="15.742473662340606" /><path d="M 225699.1559562626,253998.0119434487 L 225699.1559562626,249398.0119434477 L 225599.1559562616,249398.011943448 L 225599.1559562616,249298.0119434477 L 228299.1559562691,249298.0119434477 L 228299.1559562691,249398.0119434477 L 225799.1559562626,249398.0119434477 L 225799.1559562626,253998.0119434487" fill="none" stroke="black" stroke-width="15.742473662340606" /><path d="M 232899.1559562602,247398.0119434477 L 230899.1559562607,247398.0119434477 L 230899.1559562607,247798.0119434477 L 232899.1559562602,247798.0119434477" fill="none" stroke="black" stroke-width="15.742473662340606" /><path d="M 229699.1559562598,247798.0119434477 L 229899.1559562607,247798.0119434477 L 229899.1559562607,247398.0119434477 L 229699.1559562598,247398.0119434477" fill="none" stroke="black" stroke-width="15.742473662340606" /><path d="M 232899.1559562602,247798.0119434482 L 232899.1559562602,253998.0119434482" fill="none" stroke="black" stroke-width="15.742473662340606" /><path d="M 232899.1559562607,245198.0119434473 L 233299.1559562607,245198.0119434473 L 233299.1559562607,245598.0119434473 L 232899.1559562607,245598.0119434473 Z" fill="none" stroke="black" stroke-width="15.742473662340606" /><path d="M 239099.1559562602,245198.0119434473 L 239499.1559562602,245198.0119434473 L 239499.1559562602,245598.0119434473 L 239099.1559562602,245598.0119434473 Z" fill="none" stroke="black" stroke-width="15.742473662340606" /><path d="M 229299.1559562598,238598.0119434487 L 229699.1559562598,238598.0119434487 L 229699.1559562598,238998.0119434487 L 229299.1559562598,238998.0119434487 Z" fill="none" stroke="black" stroke-width="15.742473662340606" /><path d="M 232899.1559562607,238598.0119434482 L 233299.1559562607,238598.0119434482 L 233299.1559562607,238998.0119434482 L 232899.1559562607,238998.0119434482 Z" fill="none" stroke="black" stroke-width="15.742473662340606" /><path d="M 239499.1559562616,238598.0119434477 L 240499.1559562602,238598.0119434475 L 240499.1559562602,238998.0119434475 L 239499.1559562612,238998.0119434477 L 239499.1559562602,245198.0119434473" fill="none" stroke="black" stroke-width="15.742473662340606" /><path d="M 239499.1559562616,238598.0119434482 L 239099.1559562616,238598.0119434482 L 239099.1559562616,238998.0119434482 L 239499.1559562616,238998.0119434482 Z" fill="none" stroke="black" stroke-width="15.742473662340606" /><path d="M 225699.1559562598,238598.0119434489 L 226099.1559562598,238598.0119434489 L 226099.1559562598,238998.0119434489 L 225699.1559562598,238998.0119434489 Z" fill="none" stroke="black" stroke-width="15.742473662340606" /><path d="M 246299.1559562598,238598.0119434487 L 246699.1559562598,238598.0119434487 L 246699.1559562598,238998.0119434487 L 246299.1559562598,238998.0119434487 Z" fill="none" stroke="black" stroke-width="15.742473662340606" /><path d="M 223749.1559562579,241208.0119434473 L 224449.1559562654,241208.0119434473" fill="none" stroke="black" stroke-width="15.742473662340606" /><line stroke="black" stroke-width="15.742473662340606" x1="223749.1559562579" x2="224499.1559562654" y1="241248.0119434454" y2="241248.0119434454" /><line stroke="black" stroke-width="15.742473662340606" x1="223749.1559562579" x2="224499.1559562654" y1="241148.0119434454" y2="241148.0119434454" /><path d="M 223699.1559562579,241148.0119434454 L 223749.1559562579,241148.0119434454 L 223749.1559562579,241248.0119434454 L 223699.1559562579,241248.0119434454 Z" fill="none" stroke="black" stroke-width="15.742473662340606" /><path d="M 224449.1559562654,241148.0119434454 L 224499.1559562654,241148.0119434454 L 224499.1559562654,241248.0119434454 L 224449.1559562654,241248.0119434454 Z" fill="none" stroke="black" stroke-width="15.742473662340606" /><path d="M 223749.1559562579,241188.0119434473 L 224449.1559562654,241188.0119434473" fill="none" stroke="black" stroke-width="15.742473662340606" /><path d="M 223699.1559562579,241398.0119434477 L 224499.1559562644,241398.0119434482 L 224499.1559562644,240998.0119434482 L 223699.1559562579,240998.0119434477" fill="none" stroke="black" stroke-width="15.742473662340606" /><path d="M 225699.1559562598,240998.0119434484 L 225699.1559562598,238998.0119434489" fill="none" stroke="black" stroke-width="15.742473662340606" /><path d="M 226099.1559562644,238998.0119434489 L 226099.1559562598,240998.0119434487" fill="none" stroke="black" stroke-width="15.742473662340606" /><path d="M 223749.1559562612,254208.0119434473 L 224449.1559562686,254208.0119434473" fill="none" stroke="black" stroke-width="15.742473662340606" /><line stroke="black" stroke-width="15.742473662340606" x1="223749.1559562612" x2="224499.1559562686" y1="254248.0119434454" y2="254248.0119434454" /><line stroke="black" stroke-width="15.742473662340606" x1="223749.1559562612" x2="224499.1559562686" y1="254148.0119434454" y2="254148.0119434454" /><path d="M 223699.1559562612,254148.0119434454 L 223749.1559562612,254148.0119434454 L 223749.1559562612,254248.0119434454 L 223699.1559562612,254248.0119434454 Z" fill="none" stroke="black" stroke-width="15.742473662340606" /><path d="M 224449.1559562686,254148.0119434454 L 224499.1559562686,254148.0119434454 L 224499.1559562686,254248.0119434454 L 224449.1559562686,254248.0119434454 Z" fill="none" stroke="black" stroke-width="15.742473662340606" /><path d="M 223749.1559562612,254188.0119434473 L 224449.1559562686,254188.0119434473" fill="none" stroke="black" stroke-width="15.742473662340606" /><path d="M 223699.1559562612,254398.0119434477 L 224499.1559562677,254398.0119434482 L 224499.1559562677,253998.0119434482 L 223699.1559562612,253998.0119434477" fill="none" stroke="black" stroke-width="15.742473662340606" /><path d="M 249699.1559562626,253998.0119434477 L 248699.1559562612,253998.0119434477 L 248699.1559562612,254398.0119434477 L 249699.1559562626,254398.0119434477" fill="none" stroke="black" stroke-width="15.742473662340606" /><path d="M 248649.1559562612,254208.0119434473 L 247949.1559562537,254208.0119434473" fill="none" stroke="black" stroke-width="15.742473662340606" /><line stroke="black" stroke-width="15.742473662340606" x1="248649.1559562612" x2="247899.1559562537" y1="254248.0119434454" y2="254248.0119434454" /><line stroke="black" stroke-width="15.742473662340606" x1="248649.1559562612" x2="247899.1559562537" y1="254148.0119434454" y2="254148.0119434454" /><path d="M 248699.1559562612,254148.0119434454 L 248649.1559562612,254148.0119434454 L 248649.1559562612,254248.0119434454 L 248699.1559562612,254248.0119434454 Z" fill="none" stroke="black" stroke-width="15.742473662340606" /><path d="M 247949.1559562537,254148.0119434454 L 247899.1559562537,254148.0119434454 L 247899.1559562537,254248.0119434454 L 247949.1559562537,254248.0119434454 Z" fill="none" stroke="black" stroke-width="15.742473662340606" /><path d="M 248649.1559562612,254188.0119434473 L 247949.1559562537,254188.0119434473" fill="none" stroke="black" stroke-width="15.742473662340606" /><path d="M 248699.1559562612,254398.0119434477 L 247899.1559562547,254398.0119434482 L 247899.1559562547,253998.0119434482 L 248699.1559562612,253998.0119434477" fill="none" stroke="black" stroke-width="15.742473662340606" /><path d="M 246699.1559562598,254398.0119434487 L 247099.1559562598,254398.0119434487 L 247099.1559562598,253998.0119434487 L 246699.1559562598,253998.0119434477" fill="none" stroke="black" stroke-width="15.742473662340606" /><path d="M 226949.1559562612,255208.0119434496 L 228449.1559562621,255208.0119434468" fill="none" stroke="black" stroke-width="15.742473662340606" /><line stroke="black" stroke-width="15.742473662340606" x1="226949.1559562612" x2="228499.1559562621" y1="255248.0119434477" y2="255248.011943445" /><line stroke="black" stroke-width="15.742473662340606" x1="226949.1559562612" x2="228499.1559562621" y1="255148.0119434477" y2="255148.011943445" /><path d="M 226899.1559562612,255148.0119434477 L 226949.1559562612,255148.0119434477 L 226949.1559562612,255248.0119434477 L 226899.1559562612,255248.0119434477 Z" fill="none" stroke="black" stroke-width="15.742473662340606" /><path d="M 228449.1559562621,255148.011943445 L 228499.1559562621,255148.011943445 L 228499.1559562621,255248.011943445 L 228449.1559562621,255248.011943445 Z" fill="none" stroke="black" stroke-width="15.742473662340606" /><path d="M 226949.1559562612,255188.0119434496 L 228449.1559562621,255188.0119434468" fill="none" stroke="black" stroke-width="15.742473662340606" /><path d="M 226899.1559562612,255398.0119434501 L 228499.1559562612,255398.0119434477 L 228499.1559562612,254998.0119434477 L 226899.1559562612,254998.0119434501 Z" fill="none" stroke="black" stroke-width="15.742473662340606" /><path d="M 245449.1559562612,255208.0119434473 L 243949.1559562602,255208.0119434445" fill="none" stroke="black" stroke-width="15.742473662340606" /><line stroke="black" stroke-width="15.742473662340606" x1="245449.1559562612" x2="243899.1559562602" y1="255248.0119434454" y2="255248.0119434426" /><line stroke="black" stroke-width="15.742473662340606" x1="245449.1559562612" x2="243899.1559562602" y1="255148.0119434454" y2="255148.0119434426" /><path d="M 245499.1559562612,255148.0119434454 L 245449.1559562612,255148.0119434454 L 245449.1559562612,255248.0119434454 L 245499.1559562612,255248.0119434454 Z" fill="none" stroke="black" stroke-width="15.742473662340606" /><path d="M 243949.1559562602,255148.0119434426 L 243899.1559562602,255148.0119434426 L 243899.1559562602,255248.0119434426 L 243949.1559562602,255248.0119434426 Z" fill="none" stroke="black" stroke-width="15.742473662340606" /><path d="M 245449.1559562612,255188.0119434473 L 243949.1559562602,255188.0119434445" fill="none" stroke="black" stroke-width="15.742473662340606" /><path d="M 245499.1559562612,255398.0119434477 L 243899.1559562612,255398.0119434454 L 243899.1559562612,254998.0119434454 L 245499.1559562612,254998.0119434477 Z" fill="none" stroke="black" stroke-width="15.742473662340606" /><path d="M 234149.1559562607,255208.0119434508 L 235649.1559562616,255208.011943448" fill="none" stroke="black" stroke-width="15.742473662340606" /><line stroke="black" stroke-width="15.742473662340606" x1="234149.1559562607" x2="235699.1559562616" y1="255248.0119434489" y2="255248.0119434461" /><line stroke="black" stroke-width="15.742473662340606" x1="234149.1559562607" x2="235699.1559562616" y1="255148.0119434489" y2="255148.0119434461" /><path d="M 234099.1559562607,255148.0119434489 L 234149.1559562607,255148.0119434489 L 234149.1559562607,255248.0119434489 L 234099.1559562607,255248.0119434489 Z" fill="none" stroke="black" stroke-width="15.742473662340606" /><path d="M 235649.1559562616,255148.0119434461 L 235699.1559562616,255148.0119434461 L 235699.1559562616,255248.0119434461 L 235649.1559562616,255248.0119434461 Z" fill="none" stroke="black" stroke-width="15.742473662340606" /><path d="M 234149.1559562607,255188.0119434508 L 235649.1559562616,255188.011943448" fill="none" stroke="black" stroke-width="15.742473662340606" /><path d="M 234099.1559562607,255398.0119434512 L 235699.1559562607,255398.0119434489 L 235699.1559562607,254998.0119434489 L 234099.1559562607,254998.0119434512" fill="none" stroke="black" stroke-width="15.742473662340606" /><path d="M 242699.1559562598,253998.0119434475 L 242299.1559562612,253998.0119434501 L 242299.1559562612,254398.0119434477 L 242699.1559562598,254398.0119434477" fill="none" stroke="black" stroke-width="15.742473662340606" /><path d="M 242699.1559562579,254398.0119434487 L 242699.1559562621,255398.0119434477 L 243899.1559562612,255398.0119434477 L 243899.1559562612,254998.0119434477 L 243099.1559562607,254998.0119434477 L 243099.1559562584,254398.0119434487" fill="none" stroke="black" stroke-width="15.742473662340606" /><path d="M 240749.1559562612,254208.0119434473 L 241449.1559562686,254208.0119434473" fill="none" stroke="black" stroke-width="15.742473662340606" /><line stroke="black" stroke-width="15.742473662340606" x1="240749.1559562612" x2="241499.1559562686" y1="254248.0119434454" y2="254248.0119434454" /><line stroke="black" stroke-width="15.742473662340606" x1="240749.1559562612" x2="241499.1559562686" y1="254148.0119434454" y2="254148.0119434454" /><path d="M 240699.1559562612,254148.0119434454 L 240749.1559562612,254148.0119434454 L 240749.1559562612,254248.0119434454 L 240699.1559562612,254248.0119434454 Z" fill="none" stroke="black" stroke-width="15.742473662340606" /><path d="M 241449.1559562686,254148.0119434454 L 241499.1559562686,254148.0119434454 L 241499.1559562686,254248.0119434454 L 241449.1559562686,254248.0119434454 Z" fill="none" stroke="black" stroke-width="15.742473662340606" /><path d="M 240749.1559562612,254188.0119434473 L 241449.1559562686,254188.0119434473" fill="none" stroke="black" stroke-width="15.742473662340606" /><path d="M 240699.1559562612,254398.0119434477 L 241499.1559562677,254398.0119434482 L 241499.1559562677,253998.0119434482 L 240699.1559562612,253998.0119434477" fill="none" stroke="black" stroke-width="15.742473662340606" /><path d="M 233299.1559562607,254398.0119434487 L 233299.1559562607,254998.011943448 L 234099.1559562607,254998.0119434482 L 234099.1559562607,255398.0119434482 L 232899.1559562607,255398.0119434477 L 232899.1559562607,254398.0119434487" fill="none" stroke="black" stroke-width="15.742473662340606" /><path d="M 229699.1559562616,254398.0119434477 L 230099.1559562607,254398.0119434477 L 230099.1559562607,253998.0119434477 L 229699.1559562616,253998.0119434477" fill="none" stroke="black" stroke-width="15.742473662340606" /><path d="M 232899.1559562626,253998.0119434477 L 231699.1559562607,253998.0119434501 L 231699.1559562607,254398.0119434477 L 232899.1559562626,254398.0119434477" fill="none" stroke="black" stroke-width="15.742473662340606" /><path d="M 229699.1559562635,254398.0119434487 L 229699.1559562593,255398.0119434477 L 228499.1559562612,255398.0119434477 L 228499.1559562612,254998.0119434477 L 229299.1559562607,254998.0119434477 L 229299.1559562635,254398.0119434487" fill="none" stroke="black" stroke-width="15.742473662340606" /><path d="M 231649.1559562607,254208.0119434473 L 230949.1559562533,254208.0119434473" fill="none" stroke="black" stroke-width="15.742473662340606" /><line stroke="black" stroke-width="15.742473662340606" x1="231649.1559562607" x2="230899.1559562533" y1="254248.0119434454" y2="254248.0119434454" /><line stroke="black" stroke-width="15.742473662340606" x1="231649.1559562607" x2="230899.1559562533" y1="254148.0119434454" y2="254148.0119434454" /><path d="M 231699.1559562607,254148.0119434454 L 231649.1559562607,254148.0119434454 L 231649.1559562607,254248.0119434454 L 231699.1559562607,254248.0119434454 Z" fill="none" stroke="black" stroke-width="15.742473662340606" /><path d="M 230949.1559562533,254148.0119434454 L 230899.1559562533,254148.0119434454 L 230899.1559562533,254248.0119434454 L 230949.1559562533,254248.0119434454 Z" fill="none" stroke="black" stroke-width="15.742473662340606" /><path d="M 231649.1559562607,254188.0119434473 L 230949.1559562533,254188.0119434473" fill="none" stroke="black" stroke-width="15.742473662340606" /><path d="M 231699.1559562607,254398.0119434477 L 230899.1559562542,254398.0119434482 L 230899.1559562542,253998.0119434482 L 231699.1559562607,253998.0119434477" fill="none" stroke="black" stroke-width="15.742473662340606" /><path d="M 226099.1559562598,254398.0119434487 L 226099.1559562598,254998.0119434477 L 226899.1559562612,254998.0119434477 L 226899.1559562612,255398.0119434477 L 225699.1559562598,255398.0119434477 L 225699.1559562598,254398.0119434487" fill="none" stroke="black" stroke-width="15.742473662340606" /><path d="M 222299.1559562598,254398.0119434487 L 222299.1559562598,255398.0119434477 L 222499.1559562612,255398.0119434477 L 222499.1559562612,254398.0119434487" fill="none" stroke="black" stroke-width="15.742473662340606" /><path d="M 246699.1559562616,254398.0119434487 L 246699.1559562616,255398.0119434477 L 245499.1559562612,255398.0119434477 L 245499.1559562612,254998.0119434477 L 246299.1559562616,254998.0119434477 L 246299.1559562616,254398.0119434487" fill="none" stroke="black" stroke-width="15.742473662340606" /><path d="M 250099.1559562616,254398.0119434487 L 250099.1559562616,255398.0119434477 L 249899.1559562607,255398.0119434477 L 249899.1559562607,254398.0119434487" fill="none" stroke="black" stroke-width="15.742473662340606" /><path d="M 239499.1559562607,255398.0119434475 L 242699.1559562621,255398.0119434475" fill="none" stroke="black" stroke-width="15.742473662340606" /><path d="M 222399.1559562612,255398.0119434475 L 225699.1559562616,255398.0119434475" fill="none" stroke="black" stroke-width="15.742473662340606" /><path d="M 225899.1559562602,255398.0119434477 L 225899.1559562602,255598.0119434475 L 222399.1559562612,255598.0119434475 L 222399.1559562612,255398.0119434477" fill="none" stroke="black" stroke-width="15.742473662340606" /><path d="M 249999.1559562607,255398.0119434475 L 246699.1559562607,255398.0119434475" fill="none" stroke="black" stroke-width="15.742473662340606" /><path d="M 246499.1559562621,255398.0119434477 L 246499.1559562621,255598.0119434475 L 249999.1559562612,255598.0119434473 L 249999.1559562607,255398.0119434477" fill="none" stroke="black" stroke-width="15.742473662340606" /><path d="M 239299.1559562607,255398.0119434473 L 239299.1559562607,255598.0119434473 L 242899.1559562607,255598.0119434473 L 242899.1559562607,255398.0119434477" fill="none" stroke="black" stroke-width="15.742473662340606" /><path d="M 232899.1559562616,255398.0119434475 L 229699.1559562602,255398.0119434475" fill="none" stroke="black" stroke-width="15.742473662340606" /><path d="M 233099.1559562616,255398.0119434473 L 233099.1559562616,255598.0119434473 L 229499.1559562616,255598.0119434473 L 229499.1559562616,255398.0119434477" fill="none" stroke="black" stroke-width="15.742473662340606" /><path d="M 236099.1559562598,238998.0119434482 L 236099.1559562598,245198.0119434477" fill="none" stroke="black" stroke-width="15.742473662340606" /><path d="M 236499.1559562598,245598.011943445 L 233299.1559562607,245598.0119434466" fill="none" stroke="black" stroke-width="15.742473662340606" /><path d="M 236499.1559562612,245198.0119434482 L 236499.1559562607,238998.0119434482 L 237299.1559562612,238998.0119434482 L 237299.1559562612,238598.0119434482 L 236499.1559562607,238598.0119434482" fill="none" stroke="black" stroke-width="15.742473662340606" /><path d="M 236099.1559562612,238598.0119434482 L 236499.1559562612,238598.0119434482 L 236499.1559562612,238998.0119434482 L 236099.1559562612,238998.0119434482 Z" fill="none" stroke="black" stroke-width="15.742473662340606" /><path d="M 236099.1559562612,245198.0119434482 L 236499.1559562612,245198.0119434482 L 236499.1559562612,245598.0119434482 L 236099.1559562612,245598.0119434482 Z" fill="none" stroke="black" stroke-width="15.742473662340606" /><path d="M 232899.1559562607,245598.0119434473 L 232499.1559562607,245598.0119434473 L 232499.1559562607,245198.0119434473 L 232899.1559562607,245198.0119434473" fill="none" stroke="black" stroke-width="15.742473662340606" /><path d="M 236099.1559562598,243598.0119434389 L 235799.1559562598,243598.0119434389 L 235799.1559562598,243798.0119434398 L 236099.1559562598,243798.0119434398 Z" fill="none" stroke="black" stroke-width="15.742473662340606" /><path d="M 235699.1559562598,243598.0119434398 L 235699.1559562598,243798.0119434408 L 235549.1559562598,243798.0119434408 L 235549.1559562598,243598.0119434398 Z" fill="none" stroke="black" stroke-width="15.742473662340606" /><path d="M 235699.1559562598,243798.0119434408 L 235652.9402292118,243641.1129373376 L 235549.1559562598,243598.0119434398" fill="none" stroke="black" stroke-width="15.742473662340606" /><circle cx="235884.1559562598" cy="243738.0119434389" fill="none" r="15.0" stroke="black" stroke-width="15.742473662340606" /><path d="M 235799.1559562598,243598.0119434389 L 236044.9488374338,243667.6937724854 L 236099.1559562598,243798.0119434398" fill="none" stroke="black" stroke-width="15.742473662340606" /><circle cx="235999.1559562598" cy="243698.0119434389" fill="none" r="50.0" stroke="black" stroke-width="15.742473662340606" /><circle cx="235884.1559562598" cy="243658.0119434389" fill="none" r="15.0" stroke="black" stroke-width="15.742473662340606" /><path d="M 232899.1559562602,249998.011943448 L 231099.1559562607,249998.011943448" fill="none" stroke="black" stroke-width="15.742473662340606" /><path d="M 232899.1559562602,249998.011943448 L 231099.1559562607,249998.011943448 L 231099.1559562607,249998.011943448 L 229299.1559562598,249998.011943448 L 229299.1559562598,249898.011943448" fill="none" stroke="black" stroke-width="15.742473662340606" /><path d="M 232399.1559562598,249698.0119434471 L 232844.9488374338,249767.6937724935 L 232899.1559562598,249898.011943448" fill="none" stroke="black" stroke-width="15.742473662340606" /><path d="M 232899.1559562598,249698.0119434471 L 232399.1559562598,249698.0119434471 L 232399.1559562598,249898.011943448 L 232899.1559562598,249898.011943448 Z" fill="none" stroke="black" stroke-width="15.742473662340606" /><circle cx="232649.1559562598" cy="249798.0119434475" fill="none" r="50.0" stroke="black" stroke-width="15.742473662340606" /><circle cx="232534.1559562598" cy="249758.0119434475" fill="none" r="15.0" stroke="black" stroke-width="15.742473662340606" /><circle cx="232534.1559562598" cy="249838.0119434475" fill="none" r="15.0" stroke="black" stroke-width="15.742473662340606" /><circle cx="232454.1559562598" cy="249798.0119434475" fill="none" r="15.0" stroke="black" stroke-width="15.742473662340606" /><path d="M 232299.1559562598,249698.011943448 L 232299.1559562598,249898.0119434489 L 232149.1559562598,249898.0119434489 L 232149.1559562598,249698.011943448 Z" fill="none" stroke="black" stroke-width="15.742473662340606" /><path d="M 232299.1559562598,249898.0119434489 L 232252.9402292118,249741.1129373457 L 232149.1559562598,249698.011943448" fill="none" stroke="black" stroke-width="15.742473662340606" /><path d="M 232049.1559562598,249698.0119434489 L 232049.1559562598,249898.0119434498 L 231899.1559562598,249898.0119434498 L 231899.1559562598,249698.0119434489 Z" fill="none" stroke="black" stroke-width="15.742473662340606" /><path d="M 232049.1559562598,249898.0119434498 L 232002.9402292118,249741.1129373467 L 231899.1559562598,249698.0119434489" fill="none" stroke="black" stroke-width="15.742473662340606" /><path d="M 233299.1559562602,247798.0119434487 L 235299.1559562603,247798.011943449 L 235299.1559562603,247398.011943449 L 233299.1559562602,247398.0119434484" fill="none" stroke="black" stroke-width="15.742473662340606" /><path d="M 239499.1559562607,253998.0119434477 L 240699.1559562612,253998.0119434477 L 240699.1559562612,254398.0119434477 L 239499.1559562607,254398.0119434475" fill="none" stroke="black" stroke-width="15.742473662340606" /><path d="M 236699.1559562602,255398.0119434475 L 235699.1559562607,255398.0119434475 L 235699.1559562607,254998.011943448 L 236299.1559562602,254998.011943448 L 236299.1559562602,253998.0119434477 L 236999.1559562602,253998.0119434477 L 236999.1559562602,254398.0119434477 L 236699.1559562602,254398.0119434477 Z" fill="none" stroke="black" stroke-width="15.742473662340606" /><path d="M 239099.1559562621,247798.0119434487 L 236299.1559562603,247798.011943449 L 236299.1559562603,247398.011943449 L 239099.1559562598,247398.0119434487" fill="none" stroke="black" stroke-width="15.742473662340606" /><path d="M 229299.1559562598,245598.0119434489 L 229699.1559562575,245598.0119434489" fill="none" stroke="black" stroke-width="15.742473662340606" /><path d="M 226099.1559562612,247398.0119434477 L 229299.1559562616,247398.0119434477" fill="none" stroke="black" stroke-width="15.742473662340606" /><path d="M 229299.1559562616,247798.0119434477 L 226099.1559562612,247798.0119434477" fill="none" stroke="black" stroke-width="15.742473662340606" /><path d="M 225699.1559562593,247398.0119434477 L 222699.1559562598,247398.0119434487" fill="none" stroke="black" stroke-width="15.742473662340606" /><path d="M 222699.1559562598,247798.0119434487 L 225699.1559562593,247798.0119434477" fill="none" stroke="black" stroke-width="15.742473662340606" /><path d="M 225699.1559562588,241398.0119434477 L 225699.1559562598,244198.0119434491 L 225799.1559562602,244198.0119434491 L 225799.1559562602,243598.0119434475 L 226199.1559562607,243598.0119434475 L 226199.1559562607,243498.0119434482 L 225799.1559562602,243498.0119434484 L 225799.1559562588,241398.0119434477" fill="none" stroke="black" stroke-width="15.742473662340606" /><path d="M 231099.1559562607,247798.011943448 L 231099.1559562607,248398.0119434552 L 231199.1559562607,248398.0119434552 L 231199.1559562607,247798.0119434482" fill="none" stroke="black" stroke-width="15.742473662340606" /><path d="M 222699.1559562607,249398.0119434477 L 224699.15595627,249398.0119434477 L 224699.15595627,249298.0119434477 L 224599.15595627,249298.0119434477 L 224599.15595627,249198.0119434475 L 224499.15595627,249198.0119434477 L 224499.15595627,249298.0119434477 L 222699.1559562607,249298.0119434477" fill="none" stroke="black" stroke-width="15.742473662340606" /><path d="M 224499.15595627,247798.0119434482 L 224499.1559562705,248398.0119434477 L 224599.15595627,248398.0119434477 L 224599.15595627,247798.011943448" fill="none" stroke="black" stroke-width="15.742473662340606" /><path d="M 249899.1559562598,247798.0119434487 L 246699.1559562598,247798.0119434487" fill="none" stroke="black" stroke-width="15.742473662340606" /><path d="M 249899.1559562616,247398.0119434487 L 246699.1559562598,247398.0119434487" fill="none" stroke="black" stroke-width="15.742473662340606" /><path d="M 246599.1559562621,241398.0119434477 L 246599.1559562612,243498.0119434475 L 244032.1000023229,243498.0119434475 L 244032.1000023229,243598.0119434475 L 246599.1559562612,243598.0119434475 L 246599.1559562612,244198.0119434491 L 246699.1559562612,244198.0119434491 L 246699.1559562621,241398.0119434477" fill="none" stroke="black" stroke-width="15.742473662340606" /><path d="M 222299.1559562607,253998.0119434487 L 222299.1559562607,252998.0119434477 L 222699.1559562607,252998.0119434477 L 222699.1559562607,253998.0119434487" fill="none" stroke="black" stroke-width="15.742473662340606" /><path d="M 222699.1559562607,247798.0119434487 L 222699.1559562607,251398.0119434477 L 222299.1559562607,251398.0119434477 L 222299.1559562607,247798.0119434487" fill="none" stroke="black" stroke-width="15.742473662340606" /><path d="M 239499.1559562612,247398.0119434477 L 241499.1559562607,247398.0119434477 L 241499.1559562607,247798.0119434477 L 239499.1559562612,247798.0119434477" fill="none" stroke="black" stroke-width="15.742473662340606" /><path d="M 226099.1559562598,238998.0119434489 L 226899.1559562612,238998.0119434489 L 226899.1559562612,238598.0119434489 L 226099.1559562598,238598.0119434489" fill="none" stroke="black" stroke-width="15.742473662340606" /><path d="M 229299.1559562598,238998.0119434487 L 228499.1559562612,238998.0119434487 L 228499.1559562612,238598.0119434487 L 229299.1559562598,238598.0119434487" fill="none" stroke="black" stroke-width="15.742473662340606" /><path d="M 226949.1559562612,238808.0119434496 L 228449.1559562621,238808.0119434468" fill="none" stroke="black" stroke-width="15.742473662340606" /><line stroke="black" stroke-width="15.742473662340606" x1="226949.1559562612" x2="228499.1559562621" y1="238848.0119434477" y2="238848.011943445" /><line stroke="black" stroke-width="15.742473662340606" x1="226949.1559562612" x2="228499.1559562621" y1="238748.0119434477" y2="238748.011943445" /><path d="M 226899.1559562612,238748.0119434477 L 226949.1559562612,238748.0119434477 L 226949.1559562612,238848.0119434477 L 226899.1559562612,238848.0119434477 Z" fill="none" stroke="black" stroke-width="15.742473662340606" /><path d="M 228449.1559562621,238748.011943445 L 228499.1559562621,238748.011943445 L 228499.1559562621,238848.011943445 L 228449.1559562621,238848.011943445 Z" fill="none" stroke="black" stroke-width="15.742473662340606" /><path d="M 226949.1559562612,238788.0119434496 L 228449.1559562621,238788.0119434468" fill="none" stroke="black" stroke-width="15.742473662340606" /><path d="M 226899.1559562612,238998.0119434501 L 228499.1559562612,238998.0119434477 L 228499.1559562612,238598.0119434477 L 226899.1559562612,238598.0119434501" fill="none" stroke="black" stroke-width="15.742473662340606" /><path d="M 229099.1559562607,247398.0119434477 L 229099.1559562607,247098.0119434477 L 229299.1559562616,247098.0119434477 L 229299.1559562616,247398.0119434477 Z" fill="none" stroke="black" stroke-width="15.742473662340606" /><path d="M 229099.1559562616,246998.0119434477 L 229299.1559562626,246998.0119434477 L 229299.1559562626,246848.0119434477 L 229099.1559562616,246848.0119434477 Z" fill="none" stroke="black" stroke-width="15.742473662340606" /><path d="M 229299.1559562626,246998.0119434477 L 229142.2569501594,246951.7962163998 L 229099.1559562616,246848.0119434477" fill="none" stroke="black" stroke-width="15.742473662340606" /><circle cx="229239.1559562607" cy="247183.0119434477" fill="none" r="15.0" stroke="black" stroke-width="15.742473662340606" /><path d="M 229099.1559562607,247098.0119434477 L 229168.8377853072,247343.8048246218 L 229299.1559562616,247398.0119434477" fill="none" stroke="black" stroke-width="15.742473662340606" /><circle cx="229199.1559562607" cy="247298.0119434477" fill="none" r="50.0" stroke="black" stroke-width="15.742473662340606" /><circle cx="229159.1559562607" cy="247183.0119434477" fill="none" r="15.0" stroke="black" stroke-width="15.742473662340606" /><path d="M 222299.1559562598,240998.0119434487 L 222299.1559562598,239798.0119434477 L 222499.1559562598,239798.0119434477 L 222499.1559562612,240998.0119434487" fill="none" stroke="black" stroke-width="15.742473662340606" /><path d="M 222399.1559562598,239798.0119434477 L 222399.1559562598,239598.0119434477 L 225699.1559562598,239598.0119434477 L 225699.1559562598,239798.0119434477 L 222399.1559562598,239798.0119434477" fill="none" stroke="black" stroke-width="15.742473662340606" /><path d="M 249699.1559562616,241398.0119434477 L 248699.1559562635,241398.0119434477 L 248699.1559562635,240998.0119434477 L 249699.1559562616,240998.0119434484" fill="none" stroke="black" stroke-width="15.742473662340606" /><path d="M 246699.1559562598,240998.0119434477 L 247099.1559562635,240998.0119434477 L 247099.1559562635,241398.0119434477 L 246699.1559562598,241398.0119434477" fill="none" stroke="black" stroke-width="15.742473662340606" /><path d="M 248649.1559562635,241208.0119434473 L 247949.1559562561,241208.0119434473" fill="none" stroke="black" stroke-width="15.742473662340606" /><line stroke="black" stroke-width="15.742473662340606" x1="248649.1559562635" x2="247899.1559562561" y1="241248.0119434454" y2="241248.0119434454" /><line stroke="black" stroke-width="15.742473662340606" x1="248649.1559562635" x2="247899.1559562561" y1="241148.0119434454" y2="241148.0119434454" /><path d="M 248699.1559562635,241148.0119434454 L 248649.1559562635,241148.0119434454 L 248649.1559562635,241248.0119434454 L 248699.1559562635,241248.0119434454 Z" fill="none" stroke="black" stroke-width="15.742473662340606" /><path d="M 247949.1559562561,241148.0119434454 L 247899.1559562561,241148.0119434454 L 247899.1559562561,241248.0119434454 L 247949.1559562561,241248.0119434454 Z" fill="none" stroke="black" stroke-width="15.742473662340606" /><path d="M 248649.1559562635,241188.0119434473 L 247949.1559562561,241188.0119434473" fill="none" stroke="black" stroke-width="15.742473662340606" /><path d="M 248699.1559562635,241398.0119434477 L 247899.155956257,241398.0119434482 L 247899.155956257,240998.0119434482 L 248699.1559562635,240998.0119434477" fill="none" stroke="black" stroke-width="15.742473662340606" /><path d="M 250099.1559562616,240998.0119434487 L 250099.1559562616,239798.0119434477 L 249899.1559562616,239798.0119434477 L 249899.1559562602,240998.0119434487" fill="none" stroke="black" stroke-width="15.742473662340606" /><path d="M 249999.1559562616,239798.0119434477 L 249999.1559562616,239598.0119434477 L 246699.1559562616,239598.0119434477 L 246699.1559562616,239798.0119434477 L 249999.1559562616,239798.0119434477" fill="none" stroke="black" stroke-width="15.742473662340606" /><path d="M 250099.1559562616,241398.0119434487 L 250099.1559562607,243598.0119434477 L 249699.1559562607,243598.0119434477 L 249699.1559562616,241398.0119434487" fill="none" stroke="black" stroke-width="15.742473662340606" /><path d="M 236399.1559562602,253998.0119434477 L 236399.1559562602,249998.0119434475 L 236499.1559562602,249998.0119434475 L 236499.1559562602,249898.0119434473 L 236199.1559562602,249898.0119434473 L 236199.1559562602,249998.0119434473 L 236299.1559562602,249998.0119434473 L 236299.1559562602,253998.0119434477" fill="none" stroke="black" stroke-width="15.742473662340606" /><path d="M 233299.1559562602,249398.0119434477 L 234991.1104047026,249398.0119434477" fill="none" stroke="black" stroke-width="15.742473662340606" /><path d="M 234999.1559562612,247798.0119434487 L 234999.1559562612,248398.0119434477 L 235099.1559562612,248398.0119434477 L 235099.1559562612,247798.0119434487" fill="none" stroke="black" stroke-width="15.742473662340606" /><path d="M 238549.1559562602,254208.0119434473 L 237849.1559562528,254208.0119434473" fill="none" stroke="black" stroke-width="15.742473662340606" /><line stroke="black" stroke-width="15.742473662340606" x1="238549.1559562602" x2="237799.1559562528" y1="254248.0119434454" y2="254248.0119434454" /><line stroke="black" stroke-width="15.742473662340606" x1="238549.1559562602" x2="237799.1559562528" y1="254148.0119434454" y2="254148.0119434454" /><path d="M 238599.1559562602,254148.0119434454 L 238549.1559562602,254148.0119434454 L 238549.1559562602,254248.0119434454 L 238599.1559562602,254248.0119434454 Z" fill="none" stroke="black" stroke-width="15.742473662340606" /><path d="M 237849.1559562528,254148.0119434454 L 237799.1559562528,254148.0119434454 L 237799.1559562528,254248.0119434454 L 237849.1559562528,254248.0119434454 Z" fill="none" stroke="black" stroke-width="15.742473662340606" /><path d="M 238549.1559562602,254188.0119434473 L 237849.1559562528,254188.0119434473" fill="none" stroke="black" stroke-width="15.742473662340606" /><path d="M 238599.1559562602,254398.0119434477 L 237799.1559562537,254398.0119434482 L 237799.1559562537,253998.0119434482 L 238599.1559562602,253998.0119434477" fill="none" stroke="black" stroke-width="15.742473662340606" /><path d="M 239499.1559562607,254398.0119434477 L 239499.1559562607,255398.0119434475 L 238299.1559562602,255398.0119434473 L 238299.1559562602,255198.0119434473 L 239299.1559562607,255198.0119434473 L 239299.1559562607,254398.0119434477" fill="none" stroke="black" stroke-width="15.742473662340606" /><path d="M 226549.1559562612,245698.0119434477 L 226549.1559562612,245298.0119434496" fill="none" stroke="black" stroke-width="15.742473662340606" /><path d="M 222489.1559562588,251448.0119434477 L 222489.1559562616,252948.0119434487" fill="none" stroke="black" stroke-width="15.742473662340606" /><line stroke="black" stroke-width="15.742473662340606" x1="222449.1559562607" x2="222449.1559562635" y1="251448.0119434477" y2="252998.0119434487" /><line stroke="black" stroke-width="15.742473662340606" x1="222549.1559562607" x2="222549.1559562635" y1="251448.0119434477" y2="252998.0119434487" /><path d="M 222549.1559562607,251398.0119434477 L 222549.1559562607,251448.0119434477 L 222449.1559562607,251448.0119434477 L 222449.1559562607,251398.0119434477 Z" fill="none" stroke="black" stroke-width="15.742473662340606" /><path d="M 222549.1559562635,252948.0119434487 L 222549.1559562635,252998.0119434487 L 222449.1559562635,252998.0119434487 L 222449.1559562635,252948.0119434487 Z" fill="none" stroke="black" stroke-width="15.742473662340606" /><path d="M 222509.1559562588,251448.0119434477 L 222509.1559562616,252948.0119434487" fill="none" stroke="black" stroke-width="15.742473662340606" /><path d="M 222299.1559562579,251398.0119434477 L 222299.1559562607,252998.0119434477 L 222699.1559562607,252998.0119434477 L 222699.1559562579,251398.0119434477 Z" fill="none" stroke="black" stroke-width="15.742473662340606" /><path d="M 222489.1559562588,243648.0119434477 L 222489.1559562616,245148.0119434487" fill="none" stroke="black" stroke-width="15.742473662340606" /><line stroke="black" stroke-width="15.742473662340606" x1="222449.1559562607" x2="222449.1559562635" y1="243648.0119434477" y2="245198.0119434487" /><line stroke="black" stroke-width="15.742473662340606" x1="222549.1559562607" x2="222549.1559562635" y1="243648.0119434477" y2="245198.0119434487" /><path d="M 222549.1559562607,243598.0119434477 L 222549.1559562607,243648.0119434477 L 222449.1559562607,243648.0119434477 L 222449.1559562607,243598.0119434477 Z" fill="none" stroke="black" stroke-width="15.742473662340606" /><path d="M 222549.1559562635,245148.0119434487 L 222549.1559562635,245198.0119434487 L 222449.1559562635,245198.0119434487 L 222449.1559562635,245148.0119434487 Z" fill="none" stroke="black" stroke-width="15.742473662340606" /><path d="M 222509.1559562588,243648.0119434477 L 222509.1559562616,245148.0119434487" fill="none" stroke="black" stroke-width="15.742473662340606" /><path d="M 222299.1559562579,243598.0119434477 L 222299.1559562607,245198.0119434477 L 222699.1559562607,245198.0119434477 L 222699.1559562579,243598.0119434477 Z" fill="none" stroke="black" stroke-width="15.742473662340606" /><path d="M 249889.1559562588,251448.0119434477 L 249889.1559562616,252948.0119434487" fill="none" stroke="black" stroke-width="15.742473662340606" /><line stroke="black" stroke-width="15.742473662340606" x1="249849.1559562607" x2="249849.1559562635" y1="251448.0119434477" y2="252998.0119434487" /><line stroke="black" stroke-width="15.742473662340606" x1="249949.1559562607" x2="249949.1559562635" y1="251448.0119434477" y2="252998.0119434487" /><path d="M 249949.1559562607,251398.0119434477 L 249949.1559562607,251448.0119434477 L 249849.1559562607,251448.0119434477 L 249849.1559562607,251398.0119434477 Z" fill="none" stroke="black" stroke-width="15.742473662340606" /><path d="M 249949.1559562635,252948.0119434487 L 249949.1559562635,252998.0119434487 L 249849.1559562635,252998.0119434487 L 249849.1559562635,252948.0119434487 Z" fill="none" stroke="black" stroke-width="15.742473662340606" /><path d="M 249909.1559562588,251448.0119434477 L 249909.1559562616,252948.0119434487" fill="none" stroke="black" stroke-width="15.742473662340606" /><path d="M 249699.1559562579,251398.0119434477 L 249699.1559562607,252998.0119434477 L 250099.1559562607,252998.0119434477 L 250099.1559562579,251398.0119434477 Z" fill="none" stroke="black" stroke-width="15.742473662340606" /><path d="M 249889.1559562588,243648.0119434477 L 249889.1559562616,245148.0119434487" fill="none" stroke="black" stroke-width="15.742473662340606" /><line stroke="black" stroke-width="15.742473662340606" x1="249849.1559562607" x2="249849.1559562635" y1="243648.0119434477" y2="245198.0119434487" /><line stroke="black" stroke-width="15.742473662340606" x1="249949.1559562607" x2="249949.1559562635" y1="243648.0119434477" y2="245198.0119434487" /><path d="M 249949.1559562607,243598.0119434477 L 249949.1559562607,243648.0119434477 L 249849.1559562607,243648.0119434477 L 249849.1559562607,243598.0119434477 Z" fill="none" stroke="black" stroke-width="15.742473662340606" /><path d="M 249949.1559562635,245148.0119434487 L 249949.1559562635,245198.0119434487 L 249849.1559562635,245198.0119434487 L 249849.1559562635,245148.0119434487 Z" fill="none" stroke="black" stroke-width="15.742473662340606" /><path d="M 249909.1559562588,243648.0119434477 L 249909.1559562616,245148.0119434487" fill="none" stroke="black" stroke-width="15.742473662340606" /><path d="M 249699.1559562579,243598.0119434477 L 249699.1559562607,245198.0119434477 L 250099.1559562607,245198.0119434477 L 250099.1559562579,243598.0119434477 Z" fill="none" stroke="black" stroke-width="15.742473662340606" /><path d="M 232899.1559562607,238998.0119434473 L 232899.1559562607,243498.0119434475 L 232699.1559562607,243498.0119434475 L 232699.1559562607,243598.0119434475 L 233099.1559562612,243598.0119434475 L 233099.1559562612,243498.0119434475 L 232999.1559562607,243498.0119434475 L 232999.1559562626,238998.0119434471" fill="none" stroke="black" stroke-width="15.742473662340606" /><path d="M 234899.1559562612,245198.0119434477 L 234899.1559562612,244598.0119434585 L 236099.1559562598,244598.0119434585" fill="none" stroke="black" stroke-width="15.742473662340606" /><path d="M 243299.1559562607,247398.0119434477 L 243299.1559562607,247098.0119434477 L 243099.1559562598,247098.0119434477 L 243099.1559562598,247398.0119434477 Z" fill="none" stroke="black" stroke-width="15.742473662340606" /><path d="M 243399.1559562607,247398.0119434487 L 243399.1559562607,246748.0119434477 L 243099.1559562598,246748.0119434477" fill="none" stroke="black" stroke-width="15.742473662340606" /><path d="M 243299.1559562598,246998.0119434477 L 243099.1559562588,246998.0119434477 L 243099.1559562588,246848.0119434477 L 243299.1559562598,246848.0119434477 Z" fill="none" stroke="black" stroke-width="15.742473662340606" /><path d="M 243099.1559562588,246998.0119434477 L 243256.054962362,246951.7962163998 L 243299.1559562598,246848.0119434477" fill="none" stroke="black" stroke-width="15.742473662340606" /><circle cx="243159.1559562607" cy="247183.0119434477" fill="none" r="15.0" stroke="black" stroke-width="15.742473662340606" /><path d="M 243299.1559562607,247098.0119434477 L 243229.4741272143,247343.8048246218 L 243099.1559562598,247398.0119434477" fill="none" stroke="black" stroke-width="15.742473662340606" /><circle cx="243199.1559562607" cy="247298.0119434477" fill="none" r="50.0" stroke="black" stroke-width="15.742473662340606" /><circle cx="243239.1559562607" cy="247183.0119434477" fill="none" r="15.0" stroke="black" stroke-width="15.742473662340606" /><path d="M 240899.1559562612,245198.0119434477 L 240899.1559562612,244498.0119434382 L 240799.1559562612,244498.0119434382 L 240799.1559562612,245198.0119434477" fill="none" stroke="black" stroke-width="15.742473662340606" /><path d="M 239499.1559562649,243898.0119434494 L 240149.1559562649,243898.0119434494 L 240149.1559562649,243598.0119434443 L 240799.1559562612,243598.0119434389 L 240799.1559562612,243698.0119434382 L 240899.1559562612,243698.0119434382 L 240899.1559562612,243598.0119434382 L 243132.1000023238,243598.0119434317 L 243132.1000023229,243498.0119434475 L 239499.1559562607,243498.0119434475" fill="none" stroke="black" stroke-width="15.742473662340606" /><path d="M 243099.1559562607,238598.0119434477 L 243899.1559562602,238598.0119434477 L 243899.1559562602,238998.0119434477 L 243099.1559562607,238998.0119434477" fill="none" stroke="black" stroke-width="15.742473662340606" /><path d="M 246299.1559562616,238598.0119434477 L 245499.1559562602,238598.0119434477 L 245499.1559562602,238998.0119434477 L 246299.1559562616,238998.0119434477" fill="none" stroke="black" stroke-width="15.742473662340606" /><path d="M 245449.1559562602,238808.0119434496 L 243949.1559562593,238808.0119434468" fill="none" stroke="black" stroke-width="15.742473662340606" /><line stroke="black" stroke-width="15.742473662340606" x1="245449.1559562602" x2="243899.1559562593" y1="238848.0119434477" y2="238848.011943445" /><line stroke="black" stroke-width="15.742473662340606" x1="245449.1559562602" x2="243899.1559562593" y1="238748.0119434477" y2="238748.011943445" /><path d="M 245499.1559562602,238748.0119434477 L 245449.1559562602,238748.0119434477 L 245449.1559562602,238848.0119434477 L 245499.1559562602,238848.0119434477 Z" fill="none" stroke="black" stroke-width="15.742473662340606" /><path d="M 243949.1559562593,238748.011943445 L 243899.1559562593,238748.011943445 L 243899.1559562593,238848.011943445 L 243949.1559562593,238848.011943445 Z" fill="none" stroke="black" stroke-width="15.742473662340606" /><path d="M 245449.1559562602,238788.0119434496 L 243949.1559562593,238788.0119434468" fill="none" stroke="black" stroke-width="15.742473662340606" /><path d="M 245499.1559562602,238998.0119434501 L 243899.1559562602,238998.0119434477 L 243899.1559562602,238598.0119434477 L 245499.1559562602,238598.0119434501" fill="none" stroke="black" stroke-width="15.742473662340606" /><path d="M 246299.1559562598,240998.011943448 L 246299.1559562598,238998.0119434484" fill="none" stroke="black" stroke-width="15.742473662340606" /><path d="M 246699.1559562644,238998.0119434484 L 246699.1559562598,240998.0119434482" fill="none" stroke="black" stroke-width="15.742473662340606" /><path d="M 239499.1559562649,243798.0119434494 L 239799.1559562649,243798.0119434494 L 239799.1559562649,243598.0119434484 L 239499.1559562649,243598.0119434484 Z" fill="none" stroke="black" stroke-width="15.742473662340606" /><path d="M 239899.1559562649,243798.0119434484 L 239899.1559562649,243598.0119434475 L 240049.1559562649,243598.0119434475 L 240049.1559562649,243798.0119434484 Z" fill="none" stroke="black" stroke-width="15.742473662340606" /><path d="M 239899.1559562649,243598.0119434475 L 239945.3716833129,243754.9109495507 L 240049.1559562649,243798.0119434484" fill="none" stroke="black" stroke-width="15.742473662340606" /><circle cx="239714.1559562649" cy="243658.0119434494" fill="none" r="15.0" stroke="black" stroke-width="15.742473662340606" /><path d="M 239799.1559562649,243798.0119434494 L 239553.3630750909,243728.3301144029 L 239499.1559562649,243598.0119434484" fill="none" stroke="black" stroke-width="15.742473662340606" /><circle cx="239599.1559562649" cy="243698.0119434494" fill="none" r="50.0" stroke="black" stroke-width="15.742473662340606" /><circle cx="239714.1559562649" cy="243738.0119434494" fill="none" r="15.0" stroke="black" stroke-width="15.742473662340606" /><path d="M 236699.1559562602,255398.0119434496 L 238299.1559562602,255398.0119434496 L 238299.1559562602,255198.0119434473 L 236699.1559562602,255198.0119434473 Z" fill="none" stroke="black" stroke-width="15.742473662340606" /><path d="M 245849.1559562602,245698.0119434468 L 245849.1559562602,245298.0119434491" fill="none" stroke="black" stroke-width="15.742473662340606" /><line stroke="black" stroke-width="15.742473662340606" x1="240799.1559562612" x2="239499.1559562602" y1="244598.0119434477" y2="244598.0119434477" /><path d="M 240171.2972138639,240251.8705296462 L 240171.2972138639,238998.0119434477" fill="none" stroke="black" stroke-width="15.742473662340606" /><path d="M 235427.0146986585,240251.8705296462 L 235427.0146986585,238998.0119434477" fill="none" stroke="black" stroke-width="15.742473662340606" /><path d="M 243099.1559562626,238598.0119434487 L 243099.155956263,238998.0119434477 L 242099.1559562602,238998.0119434475 L 242099.1559562602,238598.0119434475 L 242699.1559562579,238598.0119434487" fill="none" stroke="black" stroke-width="15.742473662340606" /><path d="M 234999.1559562612,248298.0119434487 L 233899.1559562602,248298.0119434484 L 233899.1559562602,249298.0119434477" fill="none" stroke="black" stroke-width="15.742473662340606" /><path d="M 224499.15595627,248298.0119434408 L 223299.1559562607,248298.0119434408 L 223299.1559562607,249298.0119434398" fill="none" stroke="black" stroke-width="15.742473662340606" /><path d="M 249699.1559562616,249398.0119434477 L 247699.1559562523,249398.0119434477 L 247699.1559562523,249298.0119434477 L 247799.1559562523,249298.0119434477 L 247799.1559562523,249198.0119434475 L 247899.1559562523,249198.0119434477 L 247899.1559562523,249298.0119434477 L 249699.1559562616,249298.0119434477" fill="none" stroke="black" stroke-width="15.742473662340606" /><path d="M 247899.1559562523,247798.0119434482 L 247899.1559562519,248398.0119434477 L 247799.1559562523,248398.0119434477 L 247799.1559562523,247798.011943448" fill="none" stroke="black" stroke-width="15.742473662340606" /><path d="M 247899.1559562523,248298.0119434408 L 249099.1559562616,248298.0119434408 L 249099.1559562616,249298.0119434398" fill="none" stroke="black" stroke-width="15.742473662340606" /><path d="M 235099.1559562607,245198.0119434585 L 236099.1559562598,245198.0119434585 L 236099.1559562598,244798.0119434585 L 235099.1559562607,244798.0119434585 Z" fill="none" stroke="black" stroke-width="15.742473662340606" /><path d="M 235099.1559562607,244798.0119434585 L 236033.6559562612,244893.5119434594 L 236099.1559562621,245198.0119434585" fill="none" stroke="black" stroke-width="15.742473662340606" /><path d="M 235099.1559562602,245598.0119434564 L 235099.1559562602,245198.0119434582" fill="none" stroke="black" stroke-width="15.742473662340606" /><path d="M 235099.1559562602,245198.0119434582 L 236099.1559562598,245598.0119434564 L 236099.1559562598,245198.0119434585 L 235099.1559562602,245598.0119434564" fill="none" stroke="black" stroke-width="15.742473662340606" /><path d="M 240549.1559562602,238808.0119434471 L 241249.1559562677,238808.0119434471" fill="none" stroke="black" stroke-width="15.742473662340606" /><line stroke="black" stroke-width="15.742473662340606" x1="240549.1559562602" x2="241299.1559562677" y1="238848.0119434452" y2="238848.0119434452" /><line stroke="black" stroke-width="15.742473662340606" x1="240549.1559562602" x2="241299.1559562677" y1="238748.0119434452" y2="238748.0119434452" /><path d="M 240499.1559562602,238748.0119434452 L 240549.1559562602,238748.0119434452 L 240549.1559562602,238848.0119434452 L 240499.1559562602,238848.0119434452 Z" fill="none" stroke="black" stroke-width="15.742473662340606" /><path d="M 241249.1559562677,238748.0119434452 L 241299.1559562677,238748.0119434452 L 241299.1559562677,238848.0119434452 L 241249.1559562677,238848.0119434452 Z" fill="none" stroke="black" stroke-width="15.742473662340606" /><path d="M 240549.1559562602,238788.0119434471 L 241249.1559562677,238788.0119434471" fill="none" stroke="black" stroke-width="15.742473662340606" /><path d="M 240499.1559562602,238998.0119434475 L 241299.1559562668,238998.011943448 L 241299.1559562668,238598.011943448 L 240499.1559562602,238598.0119434475" fill="none" stroke="black" stroke-width="15.742473662340606" /><path d="M 246699.1559562588,253998.0119434487 L 246699.1559562588,249398.0119434477 L 246799.1559562598,249398.011943448 L 246799.1559562598,249298.0119434477 L 244099.1559562523,249298.0119434477 L 244099.1559562523,249398.0119434477 L 246599.1559562588,249398.0119434477 L 246599.1559562588,253998.0119434487" fill="none" stroke="black" stroke-width="15.742473662340606" /><line stroke="black" stroke-width="15.742473662340606" x1="245891.5450290952" x2="245891.5450290952" y1="254228.6829575173" y2="254581.7676513664" /><circle cx="245891.5450290952" cy="254402.7388020627" fill="none" r="150.0" stroke="black" stroke-width="15.742473662340606" /><circle cx="245891.5450290952" cy="254402.7388020627" fill="none" r="100.0" stroke="black" stroke-width="15.742473662340606" /><line stroke="black" stroke-width="15.742473662340606" x1="246065.8118610446" x2="245727.2364760924" y1="254402.7388020627" y2="254402.7388020627" /><line stroke="black" stroke-width="15.742473662340606" x1="245585.1559563715" x2="246185.1559563715" y1="254113.5119437448" y2="254113.5119437448" /><line stroke="black" stroke-width="15.742473662340606" x1="246185.1559563715" x2="246185.1559563715" y1="254113.5119437448" y2="254713.5119437448" /><line stroke="black" stroke-width="15.742473662340606" x1="246185.1559563715" x2="245585.1559563715" y1="254713.5119437448" y2="254713.5119437448" /><line stroke="black" stroke-width="15.742473662340606" x1="245585.1559563715" x2="245585.1559563715" y1="254713.5119437448" y2="254113.5119437448" /><line stroke="black" stroke-width="15.742473662340606" x1="245615.1559562598" x2="246155.1559564833" y1="254143.5119434468" y2="254143.5119434468" /><line stroke="black" stroke-width="15.742473662340606" x1="246155.1559564833" x2="246155.1559564833" y1="254143.5119434468" y2="254683.5119432978" /><line stroke="black" stroke-width="15.742473662340606" x1="246155.1559564833" x2="245615.1559562598" y1="254683.5119432978" y2="254683.5119432978" /><line stroke="black" stroke-width="15.742473662340606" x1="245615.1559562598" x2="245615.1559562598" y1="254683.5119432978" y2="254143.5119434468" /><line stroke="black" stroke-width="15.742473662340606" x1="245505.155956297" x2="246265.1559562598" y1="254033.5119440429" y2="254033.5119440429" /><line stroke="black" stroke-width="15.742473662340606" x1="246265.1559562598" x2="246265.1559562598" y1="254033.5119440429" y2="254793.5119434468" /><line stroke="black" stroke-width="15.742473662340606" x1="246265.1559562598" x2="245505.155956297" y1="254793.5119434468" y2="254793.5119434468" /><line stroke="black" stroke-width="15.742473662340606" x1="245505.155956297" x2="245505.155956297" y1="254793.5119434468" y2="254033.5119440429" /><path d="M 223299.1559562607,245698.0119434484 L 223299.1559562612,246798.0119434484 L 225699.1559562612,246798.0119434477" fill="none" stroke="black" stroke-width="15.742473662340606" /><path d="M 249099.1559562607,245698.0119434484 L 249099.1559562602,246798.0119434484 L 246699.1559562602,246798.0119434477" fill="none" stroke="black" stroke-width="15.742473662340606" /><circle cx="232799.1559562598" cy="249798.0119434475" fill="none" r="50.0" stroke="black" stroke-width="15.742473662340606" /><path d="M 239099.1559562598,249998.0119434482 L 237499.1559562519,249998.0119434489 L 237499.1559562519,249998.0119434489 L 237399.1559562602,249998.0119434489 L 237399.1559562602,249898.0119434489 L 237499.1559562519,249898.0119434482 L 237499.1559562519,249198.0119434487 L 237599.1559562519,249198.0119434487 L 237599.1559562509,249598.0119434498 L 239099.1559562621,249598.0119434496 L 239099.1559562621,249598.0119434491 L 239099.1559562588,249598.0119434491" fill="none" stroke="black" stroke-width="15.742473662340606" /><path d="M 238599.1559562593,249698.0119434473 L 239044.9488374333,249767.6937724937 L 239099.1559562593,249898.0119434482" fill="none" stroke="black" stroke-width="15.742473662340606" /><path d="M 239099.1559562593,249698.0119434473 L 238599.1559562593,249698.0119434473 L 238599.1559562593,249898.0119434482 L 239099.1559562593,249898.0119434482 Z" fill="none" stroke="black" stroke-width="15.742473662340606" /><circle cx="238849.1559562593" cy="249798.0119434477" fill="none" r="50.0" stroke="black" stroke-width="15.742473662340606" /><circle cx="238734.1559562593" cy="249758.0119434477" fill="none" r="15.0" stroke="black" stroke-width="15.742473662340606" /><circle cx="238734.1559562593" cy="249838.0119434477" fill="none" r="15.0" stroke="black" stroke-width="15.742473662340606" /><circle cx="238654.1559562593" cy="249798.0119434477" fill="none" r="15.0" stroke="black" stroke-width="15.742473662340606" /><path d="M 238499.1559562593,249698.0119434482 L 238499.1559562593,249898.0119434491 L 238349.1559562593,249898.0119434491 L 238349.1559562593,249698.0119434482 Z" fill="none" stroke="black" stroke-width="15.742473662340606" /><path d="M 238499.1559562593,249898.0119434491 L 238452.9402292113,249741.112937346 L 238349.1559562593,249698.0119434482" fill="none" stroke="black" stroke-width="15.742473662340606" /><path d="M 238249.1559562593,249698.0119434491 L 238249.1559562593,249898.0119434501 L 238099.1559562593,249898.0119434501 L 238099.1559562593,249698.0119434491 Z" fill="none" stroke="black" stroke-width="15.742473662340606" /><path d="M 238249.1559562593,249898.0119434501 L 238202.9402292113,249741.1129373469 L 238099.1559562593,249698.0119434491" fill="none" stroke="black" stroke-width="15.742473662340606" /><path d="M 237499.1559562519,247798.0119434489 L 237499.1559562519,248398.0119434561 L 237599.1559562519,248398.0119434561 L 237599.1559562519,247798.0119434491" fill="none" stroke="black" stroke-width="15.742473662340606" /><circle cx="238999.1559562593" cy="249798.0119434477" fill="none" r="50.0" stroke="black" stroke-width="15.742473662340606" /><path d="M 239499.1559562616,249998.0119434482 L 243099.1559562626,249998.011943448" fill="none" stroke="black" stroke-width="15.742473662340606" /><path d="M 239999.1559562621,249698.0119434473 L 239553.3630750881,249767.6937724937 L 239499.1559562621,249898.0119434482" fill="none" stroke="black" stroke-width="15.742473662340606" /><path d="M 239499.1559562621,249698.0119434473 L 239999.1559562621,249698.0119434473 L 239999.1559562621,249898.0119434482 L 239499.1559562621,249898.0119434482 Z" fill="none" stroke="black" stroke-width="15.742473662340606" /><circle cx="239749.1559562621" cy="249798.0119434477" fill="none" r="50.0" stroke="black" stroke-width="15.742473662340606" /><circle cx="239864.1559562621" cy="249758.0119434477" fill="none" r="15.0" stroke="black" stroke-width="15.742473662340606" /><circle cx="239864.1559562621" cy="249838.0119434477" fill="none" r="15.0" stroke="black" stroke-width="15.742473662340606" /><circle cx="239944.1559562621" cy="249798.0119434477" fill="none" r="15.0" stroke="black" stroke-width="15.742473662340606" /><path d="M 240099.1559562621,249698.0119434482 L 240099.1559562621,249898.0119434491 L 240249.1559562621,249898.0119434491 L 240249.1559562621,249698.0119434482 Z" fill="none" stroke="black" stroke-width="15.742473662340606" /><path d="M 240099.1559562621,249898.0119434491 L 240145.3716833101,249741.112937346 L 240249.1559562621,249698.0119434482" fill="none" stroke="black" stroke-width="15.742473662340606" /><path d="M 240349.1559562621,249698.0119434491 L 240349.1559562621,249898.0119434501 L 240499.1559562621,249898.0119434501 L 240499.1559562621,249698.0119434491 Z" fill="none" stroke="black" stroke-width="15.742473662340606" /><path d="M 240349.1559562621,249898.0119434501 L 240395.3716833101,249741.1129373469 L 240499.1559562621,249698.0119434491" fill="none" stroke="black" stroke-width="15.742473662340606" /><path d="M 241299.1559562612,247798.0119434482 L 241299.1559562612,248398.0119434554 L 241199.1559562612,248398.0119434554 L 241199.1559562612,247798.0119434484" fill="none" stroke="black" stroke-width="15.742473662340606" /><circle cx="239599.1559562621" cy="249798.0119434477" fill="none" r="50.0" stroke="black" stroke-width="15.742473662340606" /><path d="M 232227.014698664,253244.1533572493 L 232227.0146986654,253998.0119434491" fill="none" stroke="black" stroke-width="15.742473662340606" /><path d="M 238427.0146986636,253244.1533572496 L 238427.0146986636,253998.0119434477" fill="none" stroke="black" stroke-width="15.742473662340606" /><path d="M 240171.2972138583,253244.1533572493 L 240171.2972138569,253998.0119434491" fill="none" stroke="black" stroke-width="15.742473662340606" /><path d="M 238449.1559562612,238808.0119434501 L 237349.1559562602,238808.0119434473" fill="none" stroke="black" stroke-width="15.742473662340606" /><line stroke="black" stroke-width="15.742473662340606" x1="238449.1559562612" x2="237299.1559562602" y1="238848.0119434482" y2="238848.0119434454" /><line stroke="black" stroke-width="15.742473662340606" x1="238449.1559562612" x2="237299.1559562602" y1="238748.0119434482" y2="238748.0119434454" /><path d="M 238499.1559562612,238748.0119434482 L 238449.1559562612,238748.0119434482 L 238449.1559562612,238848.0119434482 L 238499.1559562612,238848.0119434482 Z" fill="none" stroke="black" stroke-width="15.742473662340606" /><path d="M 237349.1559562602,238748.0119434454 L 237299.1559562602,238748.0119434454 L 237299.1559562602,238848.0119434454 L 237349.1559562602,238848.0119434454 Z" fill="none" stroke="black" stroke-width="15.742473662340606" /><path d="M 238449.1559562612,238788.0119434501 L 237349.1559562602,238788.0119434473" fill="none" stroke="black" stroke-width="15.742473662340606" /><path d="M 238499.1559562612,238598.0119434505 L 237299.1559562612,238598.0119434505 L 237299.1559562612,238998.0119434482 L 238499.1559562612,238998.0119434482 Z" fill="none" stroke="black" stroke-width="15.742473662340606" /><path d="M 229099.1559562598,246748.0119434477 L 229299.1559562607,246748.0119434477 L 229299.1559562607,246598.0119434477 L 229099.1559562598,246598.0119434477 Z" fill="none" stroke="black" stroke-width="15.742473662340606" /><path d="M 229299.1559562607,246748.0119434477 L 229142.2569501575,246701.7962163998 L 229099.1559562598,246598.0119434477" fill="none" stroke="black" stroke-width="15.742473662340606" /><path d="M 237999.1559562593,249698.0119434482 L 237999.1559562593,249898.0119434491 L 237849.1559562593,249898.0119434491 L 237849.1559562593,249698.0119434482 Z" fill="none" stroke="black" stroke-width="15.742473662340606" /><path d="M 237999.1559562593,249898.0119434491 L 237952.9402292113,249741.112937346 L 237849.1559562593,249698.0119434482" fill="none" stroke="black" stroke-width="15.742473662340606" /><path d="M 237749.1559562593,249698.0119434491 L 237749.1559562593,249898.0119434501 L 237599.1559562593,249898.0119434501 L 237599.1559562593,249698.0119434491 Z" fill="none" stroke="black" stroke-width="15.742473662340606" /><path d="M 237749.1559562593,249898.0119434501 L 237702.9402292113,249741.1129373469 L 237599.1559562593,249698.0119434491" fill="none" stroke="black" stroke-width="15.742473662340606" /><path d="M 237999.1559562616,243698.0119434477 L 239099.1559562616,243698.0119434475" fill="none" stroke="black" stroke-width="15.742473662340606" /><path d="M 237899.1559562616,243398.0119434477 L 237949.1559562616,243398.0119434477" fill="none" stroke="black" stroke-width="15.742473662340606" /><path d="M 237999.1559562616,243398.0119434477 L 239099.1559562616,243398.0119434475" fill="none" stroke="black" stroke-width="15.742473662340606" /><path d="M 237899.1559562616,243098.0119434477 L 237949.1559562616,243098.0119434477" fill="none" stroke="black" stroke-width="15.742473662340606" /><path d="M 237999.1559562616,243098.0119434477 L 239099.1559562616,243098.0119434475" fill="none" stroke="black" stroke-width="15.742473662340606" /><path d="M 237899.1559562616,242798.0119434477 L 237949.1559562616,242798.0119434477" fill="none" stroke="black" stroke-width="15.742473662340606" /><path d="M 237999.1559562616,242798.0119434477 L 239099.1559562616,242798.0119434475" fill="none" stroke="black" stroke-width="15.742473662340606" /><path d="M 236499.1559562626,242498.011943448 L 237599.1559562616,242498.011943448" fill="none" stroke="black" stroke-width="15.742473662340606" /><path d="M 236499.1559562626,242798.011943448 L 237599.1559562616,242798.011943448" fill="none" stroke="black" stroke-width="15.742473662340606" /><path d="M 237649.1559562616,242798.011943448 L 237699.1559562616,242798.011943448" fill="none" stroke="black" stroke-width="15.742473662340606" /><path d="M 236499.1559562626,243098.011943448 L 237599.1559562616,243098.011943448" fill="none" stroke="black" stroke-width="15.742473662340606" /><path d="M 237649.1559562616,243098.011943448 L 237699.1559562616,243098.011943448" fill="none" stroke="black" stroke-width="15.742473662340606" /><path d="M 236499.1559562626,243398.011943448 L 237599.1559562616,243398.011943448" fill="none" stroke="black" stroke-width="15.742473662340606" /><path d="M 237649.1559562616,243398.011943448 L 237699.1559562616,243398.011943448" fill="none" stroke="black" stroke-width="15.742473662340606" /><path d="M 236499.1559562626,243698.011943448 L 237699.1559562616,243698.011943448" fill="none" stroke="black" stroke-width="15.742473662340606" /><path d="M 237649.1559562616,242498.011943448 L 237699.1559562616,242498.011943448" fill="none" stroke="black" stroke-width="15.742473662340606" /><path d="M 236499.1559562626,242198.011943448 L 237599.1559562616,242198.011943448" fill="none" stroke="black" stroke-width="15.742473662340606" /><path d="M 237649.1559562616,242198.011943448 L 237699.1559562616,242198.011943448" fill="none" stroke="black" stroke-width="15.742473662340606" /><path d="M 236499.1559562626,241898.0119434482 L 237599.1559562616,241898.011943448" fill="none" stroke="black" stroke-width="15.742473662340606" /><path d="M 237649.1559562616,241898.011943448 L 237699.1559562616,241898.011943448" fill="none" stroke="black" stroke-width="15.742473662340606" /><path d="M 236499.1559562626,241598.0119434482 L 237599.1559562616,241598.011943448" fill="none" stroke="black" stroke-width="15.742473662340606" /><path d="M 237649.1559562616,241598.011943448 L 237699.1559562616,241598.011943448" fill="none" stroke="black" stroke-width="15.742473662340606" /><path d="M 236499.1559562616,241298.0119434482 L 237599.1559562616,241298.0119434482" fill="none" stroke="black" stroke-width="15.742473662340606" /><path d="M 237649.1559562616,241298.0119434482 L 237699.1559562616,241298.0119434482" fill="none" stroke="black" stroke-width="15.742473662340606" /><path d="M 236499.1559562616,240998.0119434482 L 237599.1559562616,240998.0119434482" fill="none" stroke="black" stroke-width="15.742473662340606" /><path d="M 237649.1559562616,240998.0119434482 L 237699.1559562616,240998.0119434482" fill="none" stroke="black" stroke-width="15.742473662340606" /><path d="M 236499.1559562616,240698.0119434482 L 237599.1559562616,240698.0119434482" fill="none" stroke="black" stroke-width="15.742473662340606" /><path d="M 237649.1559562616,240698.0119434482 L 237699.1559562616,240698.0119434482" fill="none" stroke="black" stroke-width="15.742473662340606" /><path d="M 238640.5773124996,243556.5905872093 L 238499.1559562612,243698.0119434477 L 238357.7346000246,243556.5905872093" fill="none" stroke="black" stroke-width="15.742473662340606" /><path d="M 239099.1559562616,241898.0119434482 L 237999.1559562616,241898.011943448" fill="none" stroke="black" stroke-width="15.742473662340606" /><path d="M 237699.1559562616,242900.5119434452 L 237699.1559562616,240698.0119434482 L 237899.1559562616,240698.0119434482 L 237899.1559562616,243698.011943448 L 237699.1559562616,243698.011943448 L 237699.1559562616,242900.5119434452" fill="none" stroke="black" stroke-width="15.742473662340606" /><path d="M 237599.1559562616,243698.011943448 L 237599.1559562616,240598.0119434482 L 237999.1559562616,240598.0119434482 L 237999.1559562616,243798.011943448 L 236499.1559562626,243798.011943448" fill="none" stroke="black" stroke-width="15.742473662340606" /><path d="M 239099.1559562616,242498.0119434482 L 237999.1559562616,242498.011943448" fill="none" stroke="black" stroke-width="15.742473662340606" /><path d="M 237649.1559562616,243698.011943448 L 237649.1559562616,240648.0119434482 L 237949.1559562616,240648.0119434482 L 237949.1559562616,243748.011943448 L 236499.1559562626,243748.011943448" fill="none" stroke="black" stroke-width="15.742473662340606" /><path d="M 237949.1559562616,242498.011943448 L 237899.1559562616,242498.011943448" fill="none" stroke="black" stroke-width="15.742473662340606" /><path d="M 239099.1559562616,242198.0119434482 L 237999.1559562616,242198.011943448" fill="none" stroke="black" stroke-width="15.742473662340606" /><path d="M 237949.1559562616,242198.011943448 L 237899.1559562616,242198.011943448" fill="none" stroke="black" stroke-width="15.742473662340606" /><path d="M 237949.1559562616,241898.011943448 L 237899.1559562616,241898.011943448" fill="none" stroke="black" stroke-width="15.742473662340606" /><path d="M 237949.1559562616,241598.011943448 L 237899.1559562616,241598.011943448" fill="none" stroke="black" stroke-width="15.742473662340606" /><path d="M 237949.1559562616,241298.0119434482 L 237899.1559562616,241298.0119434482" fill="none" stroke="black" stroke-width="15.742473662340606" /><path d="M 239099.1559562616,241598.0119434482 L 237999.1559562616,241598.011943448" fill="none" stroke="black" stroke-width="15.742473662340606" /><path d="M 239099.1559562616,241298.0119434482 L 237999.1559562616,241298.0119434482" fill="none" stroke="black" stroke-width="15.742473662340606" /><path d="M 237949.1559562616,240998.0119434482 L 237899.1559562616,240998.0119434482" fill="none" stroke="black" stroke-width="15.742473662340606" /><path d="M 239099.1559562616,240698.0119434482 L 237999.1559562616,240698.0119434482" fill="none" stroke="black" stroke-width="15.742473662340606" /><path d="M 239099.1559562616,240998.0119434482 L 237999.1559562616,240998.0119434482" fill="none" stroke="black" stroke-width="15.742473662340606" /><path d="M 237949.1559562616,240698.0119434482 L 237899.1559562616,240698.0119434482" fill="none" stroke="black" stroke-width="15.742473662340606" /><path d="M 238499.1559562612,243698.0119434477 L 238499.1559562612,240298.0119434482 L 237099.1559562616,240298.0119434482 L 237099.1559562616,243698.011943448" fill="none" stroke="black" stroke-width="15.742473662340606" /><path d="M 232899.1559562607,238598.0119434477 L 231899.1559562612,238598.0119434477 L 231899.1559562612,238998.0119434477 L 232899.1559562607,238998.0119434477" fill="none" stroke="black" stroke-width="15.742473662340606" /><path d="M 229699.1559562598,238598.0119434477 L 230299.1559562612,238598.0119434477 L 230299.1559562612,238998.0119434477 L 229699.1559562598,238998.0119434477" fill="none" stroke="black" stroke-width="15.742473662340606" /><path d="M 236099.1559562612,238598.0119434482 L 235099.1559562607,238598.0119434464 L 235099.1559562607,238998.0119434464 L 236099.1559562612,238998.0119434482" fill="none" stroke="black" stroke-width="15.742473662340606" /><path d="M 232899.1559562607,238598.0119434477 L 232899.1559562626,238998.0119434482 L 233499.1559562607,238998.0119434464 L 233499.1559562607,238598.0119434464 L 233299.1559562607,238598.0119434482" fill="none" stroke="black" stroke-width="15.742473662340606" /><path d="M 235049.1559562607,238808.0119434459 L 234349.1559562533,238808.0119434459" fill="none" stroke="black" stroke-width="15.742473662340606" /><line stroke="black" stroke-width="15.742473662340606" x1="235049.1559562607" x2="234299.1559562533" y1="238848.011943444" y2="238848.011943444" /><line stroke="black" stroke-width="15.742473662340606" x1="235049.1559562607" x2="234299.1559562533" y1="238748.011943444" y2="238748.011943444" /><path d="M 235099.1559562607,238748.011943444 L 235049.1559562607,238748.011943444 L 235049.1559562607,238848.011943444 L 235099.1559562607,238848.011943444 Z" fill="none" stroke="black" stroke-width="15.742473662340606" /><path d="M 234349.1559562533,238748.011943444 L 234299.1559562533,238748.011943444 L 234299.1559562533,238848.011943444 L 234349.1559562533,238848.011943444 Z" fill="none" stroke="black" stroke-width="15.742473662340606" /><path d="M 235049.1559562607,238788.0119434459 L 234349.1559562533,238788.0119434459" fill="none" stroke="black" stroke-width="15.742473662340606" /><path d="M 235099.1559562607,238998.0119434464 L 234299.1559562542,238998.0119434468 L 234299.1559562542,238598.0119434468 L 235099.1559562607,238598.0119434464" fill="none" stroke="black" stroke-width="15.742473662340606" /><path d="M 230349.1559562616,238808.0119434459 L 231049.1559562691,238808.0119434459" fill="none" stroke="black" stroke-width="15.742473662340606" /><line stroke="black" stroke-width="15.742473662340606" x1="230349.1559562616" x2="231099.1559562691" y1="238848.011943444" y2="238848.011943444" /><line stroke="black" stroke-width="15.742473662340606" x1="230349.1559562616" x2="231099.1559562691" y1="238748.011943444" y2="238748.011943444" /><path d="M 230299.1559562616,238748.011943444 L 230349.1559562616,238748.011943444 L 230349.1559562616,238848.011943444 L 230299.1559562616,238848.011943444 Z" fill="none" stroke="black" stroke-width="15.742473662340606" /><path d="M 231049.1559562691,238748.011943444 L 231099.1559562691,238748.011943444 L 231099.1559562691,238848.011943444 L 231049.1559562691,238848.011943444 Z" fill="none" stroke="black" stroke-width="15.742473662340606" /><path d="M 230349.1559562616,238788.0119434459 L 231049.1559562691,238788.0119434459" fill="none" stroke="black" stroke-width="15.742473662340606" /><path d="M 230299.1559562616,238998.0119434464 L 231099.1559562682,238998.0119434468 L 231099.1559562682,238598.0119434468 L 230299.1559562616,238598.0119434464" fill="none" stroke="black" stroke-width="15.742473662340606" /><circle cx="222499.1559562607" cy="236161.1390986626" fill="none" r="300.0" stroke="black" stroke-width="15.742473662340606" /><circle cx="220608.5074956353" cy="241198.0119434477" fill="none" r="300.0" stroke="black" stroke-width="15.742473662340606" /><circle cx="225899.1559562607" cy="236161.1390986626" fill="none" r="300.0" stroke="black" stroke-width="15.742473662340606" /><circle cx="229499.1559562607" cy="236161.1390986626" fill="none" r="300.0" stroke="black" stroke-width="15.742473662340606" /><circle cx="233099.1559562607" cy="236161.1390986626" fill="none" r="300.0" stroke="black" stroke-width="15.742473662340606" /><circle cx="239299.1559562612" cy="236161.1390986626" fill="none" r="300.0" stroke="black" stroke-width="15.742473662340606" /><circle cx="246499.1559562607" cy="236161.1390986626" fill="none" r="300.0" stroke="black" stroke-width="15.742473662340606" /><circle cx="249899.1559562607" cy="236161.1390986626" fill="none" r="300.0" stroke="black" stroke-width="15.742473662340606" /><circle cx="220608.5074956353" cy="247598.0119434477" fill="none" r="300.0" stroke="black" stroke-width="15.742473662340606" /><circle cx="220608.5074956353" cy="254198.0119434477" fill="none" r="300.0" stroke="black" stroke-width="15.742473662340606" /><circle cx="220608.5074956353" cy="238798.0119434477" fill="none" r="300.0" stroke="black" stroke-width="15.742473662340606" /><circle cx="236299.1559562612" cy="236161.1390986626" fill="none" r="300.0" stroke="black" stroke-width="15.742473662340606" /><path d="M 233299.1559562602,247798.0119434482 L 233499.1559562602,247798.0119434482 L 233499.1559562602,247998.0119434482 L 233299.1559562602,247998.0119434482 Z" fill="none" stroke="black" stroke-width="15.742473662340606" /><path d="M 233599.1559562602,247798.0119434482 L 233749.1559562602,247798.0119434482 L 233749.1559562602,247998.0119434482 L 233599.1559562602,247998.0119434482 Z" fill="none" stroke="black" stroke-width="15.742473662340606" /><path d="M 233299.1559562602,247998.0119434482 L 233358.655956263,247835.5119434477 L 233499.1559562602,247798.0119434482" fill="none" stroke="black" stroke-width="15.742473662340606" /><path d="M 233599.1559562602,247998.0119434482 L 233638.655956263,247831.5119434477 L 233749.1559562602,247798.0119434482" fill="none" stroke="black" stroke-width="15.742473662340606" /><path d="M 233849.1559562602,247798.0119434487 L 233849.1559562602,248098.0119434482 L 233299.1559562602,248098.0119434482" fill="none" stroke="black" stroke-width="15.742473662340606" /><path d="M 229699.1559562598,246498.0119434477 L 229299.1559562598,245598.0119434489 L 229699.1559562575,245598.0119434489 L 229299.1559562616,246498.0119434477" fill="none" stroke="black" stroke-width="15.742473662340606" /><path d="M 229299.1559562598,245198.0119434489 L 228799.1559562607,245198.0119434491 L 228799.1559562607,245298.0119434489 L 228999.1559562588,245298.0119434489" fill="none" stroke="black" stroke-width="15.742473662340606" /><path d="M 228999.1559562588,245298.0119434489 L 228999.1559562588,247398.0119434477" fill="none" stroke="black" stroke-width="15.742473662340606" /><path d="M 229149.1559562593,246498.0119434477 L 229190.3062192563,245645.5023692466 L 229299.1559562607,245598.0119434522" fill="none" stroke="black" stroke-width="15.742473662340606" /><path d="M 229149.1559562593,245598.0119434494 L 229299.1559562607,245598.0119434494 L 229299.1559562607,246498.0119434477 L 229149.1559562593,246498.0119434477 Z" fill="none" stroke="black" stroke-width="15.742473662340606" /><circle cx="229224.155956263" cy="245723.0119434489" fill="none" r="25.0" stroke="black" stroke-width="15.742473662340606" /><path d="M 229299.1559562616,246498.0119434477 L 229699.1559562598,246498.0119434477" fill="none" stroke="black" stroke-width="15.742473662340606" /><path d="M 229299.1559562616,246498.0119434477 L 228999.1559562588,246498.0119434477" fill="none" stroke="black" stroke-width="15.742473662340606" /><path d="M 229099.1880595431,246848.0119434477 L 229099.1880595431,246498.0119434477" fill="none" stroke="black" stroke-width="15.742473662340606" /><path d="M 225799.1559562612,247398.0119434477 L 225799.1559562607,245298.0119434498 L 226599.1559562607,245298.0119434494 L 226599.1559562607,245198.0119434496 L 225799.1559562607,245198.0119434498 L 225799.1559562607,245098.0119434491 L 225699.1559562602,245098.0119434491 L 225699.1559562602,245598.0119434475 L 225599.1559562602,245598.011943448 L 225599.1559562602,245698.011943448 L 225699.1559562607,245698.0119434475 L 225699.1559562612,247398.0119434477" fill="none" stroke="black" stroke-width="15.742473662340606" /><path d="M 222699.1559562607,245598.0119434487 L 224799.1559562602,245598.0119434484 L 224799.1559562602,245698.0119434484 L 222699.1559562607,245698.0119434487" fill="none" stroke="black" stroke-width="15.742473662340606" /><path d="M 246599.1559562602,247398.0119434477 L 246599.1559562607,245298.0119434498 L 245599.1559562533,245298.0119434494 L 245599.1559562533,245198.0119434496 L 246599.1559562607,245198.0119434498 L 246599.1559562607,245098.0119434491 L 246699.1559562612,245098.0119434491 L 246699.1559562612,245598.0119434475 L 246799.1559562612,245598.011943448 L 246799.1559562612,245698.011943448 L 246699.1559562607,245698.0119434475 L 246699.1559562602,247398.0119434477" fill="none" stroke="black" stroke-width="15.742473662340606" /><path d="M 249699.1559562607,245598.0119434487 L 247599.1559562612,245598.0119434484 L 247599.1559562612,245698.0119434484 L 249699.1559562607,245698.0119434487" fill="none" stroke="black" stroke-width="15.742473662340606" /><path d="M 236099.1559562598,243898.0119434398 L 235449.1559562598,243898.0119434398 L 235449.1559562598,243598.0119434331 L 234199.1559562607,243598.0119434331 L 234199.1559562607,243698.0119434328 L 234099.1559562607,243698.0119434331 L 234099.1559562607,243598.0119434324 L 233999.1559562602,243598.0119434317 L 233999.1559562612,243498.0119434475 L 236099.1559562598,243498.0119434475" fill="none" stroke="black" stroke-width="15.742473662340606" /><path d="M 234199.1559562607,245198.0119434477 L 234199.1559562607,244498.0119434331 L 234099.1559562602,244498.0119434331 L 234099.1559562607,245198.0119434477" fill="none" stroke="black" stroke-width="15.742473662340606" /><path d="M 236499.1559562612,238598.0119434482 L 236499.1559562612,237398.0119434475 L 235099.1559562612,237398.0119434475 L 235099.1559562612,237598.0119434475 L 236299.1559562612,237598.0119434475 L 236299.1559562612,238598.0119434482" fill="none" stroke="black" stroke-width="15.742473662340606" /><path d="M 239099.1559562616,238598.0119434482 L 239099.1559562616,237398.0119434475 L 240299.1559562612,237398.0119434475" fill="none" stroke="black" stroke-width="15.742473662340606" /><path d="M 240299.1559562612,237598.0119434475 L 239299.1559562612,237598.0119434475 L 239299.1559562612,238598.0119434482" fill="none" stroke="black" stroke-width="15.742473662340606" /><path d="M 229299.1559562598,238598.0119434487 L 229299.1559562626,237198.0119434475 L 231999.1559562621,237198.0119434475 L 231999.1559562621,237398.0119434475" fill="none" stroke="black" stroke-width="15.742473662340606" /><path d="M 233299.1559562621,237398.0119434475 L 235099.1559562612,237398.0119434475" fill="none" stroke="black" stroke-width="15.742473662340606" /><path d="M 229499.1559562598,238598.0119434491 L 229499.1559562621,237398.0119434475 L 231899.1559562621,237398.0119434475" fill="none" stroke="black" stroke-width="15.742473662340606" /><path d="M 233299.1559562621,237598.0119434475 L 235099.1559562612,237598.0119434475" fill="none" stroke="black" stroke-width="15.742473662340606" /><path d="M 232099.1559562621,237598.0119434475 L 233299.1559562621,237598.0119434475 L 233299.1559562621,237398.0119434475 L 232099.1559562621,237398.0119434475" fill="none" stroke="black" stroke-width="15.742473662340606" /><path d="M 243099.1559562607,238598.0119434487 L 243099.1559562579,237198.0119434475 L 240399.1559562584,237198.0119434475 L 240399.1559562584,237398.0119434475" fill="none" stroke="black" stroke-width="15.742473662340606" /><path d="M 242899.1559562607,238598.0119434491 L 242899.1559562584,237398.0119434475 L 240499.1559562584,237398.0119434475" fill="none" stroke="black" stroke-width="15.742473662340606" /><path d="M 235699.1559562598,243898.0119434398 L 235699.1559562598,244598.0119434585" fill="none" stroke="black" stroke-width="15.742473662340606" /><path d="M 234899.1559562612,244598.0119434585 L 234199.1559562607,244598.0119434585" fill="none" stroke="black" stroke-width="15.742473662340606" /><path d="M 231899.1559562621,237398.0119434475 L 232099.1559562621,237398.0119434475 L 232099.1559562621,237598.0119434475 L 231899.1559562621,237598.0119434475 Z" fill="none" stroke="black" stroke-width="15.742473662340606" /><path d="M 240299.1559562612,237398.0119434468 L 240499.1559562612,237398.0119434468 L 240499.1559562612,237598.0119434468 L 240299.1559562612,237598.0119434468 Z" fill="none" stroke="black" stroke-width="15.742473662340606" /><path d="M 229299.1559562598,249998.011943448 L 229299.1559562598,249398.0119434477" fill="none" stroke="black" stroke-width="15.742473662340606" /><path d="M 229399.1559562598,249898.011943448 L 229399.1559562598,249298.0119434477" fill="none" stroke="black" stroke-width="15.742473662340606" /><path d="M 229399.1559562598,249298.0119434477 L 229199.1559562607,249298.0119434477 L 229199.1559562607,249398.0119434477 L 229299.1559562598,249398.0119434477" fill="none" stroke="black" stroke-width="15.742473662340606" /><path d="M 229399.1559562598,249898.011943448 L 231099.1559562607,249898.0119434473 L 231099.1559562607,249198.0119434477 L 231199.1559562607,249198.0119434477 L 231199.1559562598,249898.0119434484 L 231799.1559562598,249898.0119434491 L 231799.1559562598,249598.0119434491 L 232899.1559562593,249598.0119434489" fill="none" stroke="black" stroke-width="15.742473662340606" /><path d="M 242999.1559562626,249298.0119434477 L 243199.1559562616,249298.0119434477 L 243199.1559562616,249398.0119434477 L 243099.1559562626,249398.0119434477" fill="none" stroke="black" stroke-width="15.742473662340606" /><path d="M 243099.1559562626,249998.011943448 L 243099.1559562626,249398.0119434477" fill="none" stroke="black" stroke-width="15.742473662340606" /><path d="M 242999.1559562626,249898.011943448 L 242999.1559562626,249298.0119434477" fill="none" stroke="black" stroke-width="15.742473662340606" /><path d="M 241299.1559562612,249898.0119434487 L 241299.1559562612,249198.011943448 L 241299.1559562611,249198.011943448 L 241299.1559562612,249198.011943448 L 241299.1559562612,249198.0119434473 L 241299.1559562612,249198.011943448 L 241199.1559562612,249198.011943448 L 241199.1559562621,249898.0119434487 L 240599.1559562621,249898.0119434491 L 240599.1559562621,249598.0119434491 L 239499.1559562626,249598.0119434491" fill="none" stroke="black" stroke-width="15.742473662340606" /><path d="M 241299.1559562612,249898.0119434487 L 242999.1559562626,249898.0119434487" fill="none" stroke="black" stroke-width="15.742473662340606" /><circle cx="242899.1559562607" cy="236161.1390986626" fill="none" r="300.0" stroke="black" stroke-width="15.742473662340606" /><path d="M 234991.1104047026,249998.0119434473 L 235299.1559562602,249998.0119434473 L 235299.1559562602,249898.0119434473 L 235099.1559562612,249898.0119434473 L 235099.1559562612,249198.0119434477 L 234999.1559562612,249198.0119434477 L 234999.1559562612,249298.0119434477 L 233299.1559562602,249298.0119434477" fill="none" stroke="black" stroke-width="15.742473662340606" /><path d="M 234991.1104047026,249398.0119434477 L 234991.1104047026,249998.0119434473" fill="none" stroke="black" stroke-width="15.742473662340606" /><path d="M 223471.443244359,247798.0119434484 L 223471.4432443589,247398.0119434484" fill="none" stroke="black" stroke-width="15.742473662340606" /><path d="M 250673.2351688086,247598.0119434485 L 220908.5074956353,247598.0119434484" fill="none" stroke="black" stroke-width="15.742473662340606" /><path d="M 220908.5074956353,238798.0119434477 L 250673.2351688085,238798.0119434479" fill="none" stroke="black" stroke-width="15.742473662340606" /><line stroke="black" stroke-width="15.742473662340606" x1="245505.155956297" x2="246265.1559562598" y1="239876.5861741897" y2="239876.5861741897" /><line stroke="black" stroke-width="15.742473662340606" x1="245185.5102852675" x2="245185.5102852675" y1="239116.5861747857" y2="239876.5861741897" /><path d="M 246299.1559562598,241398.0119434487 L 246299.1559562598,243488.0119434475 L 246599.1559562616,243488.0119434475 L 246599.1559562616,241408.0119434477 L 246299.1559562598,241408.0119434487" fill="none" stroke="black" stroke-width="15.742473662340606" /><path d="M 246299.1559562598,241423.0119434486 L 246299.1559562598,243473.0119434475 L 246584.1559562616,243473.0119434475 L 246584.1559562616,241423.0119434478 Z" fill="none" stroke="black" stroke-width="15.742473662340606" /><path d="M 246299.1559562616,247798.0119434487 L 242499.1559562607,247798.0119434487 L 242499.1559562607,247798.0119434487 L 242499.1559562608,247398.0119434477 L 242799.1559562607,247398.0119434478 L 242799.1559562607,245598.0119434478 L 242099.1559562612,245598.0119434478 L 242099.1559562612,245198.0119434477 L 243099.1559562608,245198.0119434477 L 243099.1559562598,245798.0119434487 L 244499.1559562607,245798.0119434487 L 244499.1559562607,245198.0119434491 L 244799.1559562607,245198.0119434491 L 244799.1559562607,245298.0119434489 L 244599.1559562607,245298.0119434489 L 244599.1559562607,245898.0119434487 L 243099.1559562598,245898.0119434487" fill="none" stroke="black" stroke-width="15.742473662340606" /></g></svg>