<?xml version="1.0" encoding="utf-8" ?>
<svg baseProfile="full" height="2400.86px" version="1.1" viewBox="0 0 4000.00 2400.86" width="4000.00px" xmlns="http://www.w3.org/2000/svg" xmlns:ev="http://www.w3.org/2001/xml-events" xmlns:xlink="http://www.w3.org/1999/xlink"><defs /><g transform="translate(147.31064944922454,2357.149234011751) scale(0.11504832029440118,-0.11504832029440118)"><circle cx="4028.536057569001" cy="17877.99554532185" fill="none" r="1400.0" stroke="black" stroke-width="17.384000000018514" /><line stroke="black" stroke-width="17.384000000018514" x1="32203.57583498681" x2="32503.5758349871" y1="15629.04001443137" y2="15629.04001443089" /><line stroke="black" stroke-width="17.384000000018514" x1="32203.57583498783" x2="32503.57583498746" y1="16129.0400144322" y2="16129.04001443079" /><path d="M 32203.57583498812,16129.04001443057 L 32203.57583498775,15629.04001443068 L 31703.5758349879,15629.040014431 L 31703.57583498819,16129.04001443093 Z" fill="none" stroke="black" stroke-width="17.384000000018514" /><path d="M 23603.57583498608,7529.040014430566 L 24303.57583498652,7529.040014429693 L 24303.57583498623,8229.040014429474 L 23603.5758349863,8229.040014429984 Z" fill="none" stroke="black" stroke-width="17.384000000018514" /><path d="M 23603.57583498884,16229.0400144329 L 24303.57583498783,16229.04001443304 L 24303.57583498804,15529.04001443326 L 23603.57583498812,15529.0400144338 Z" fill="none" stroke="black" stroke-width="17.384000000018514" /><path d="M 16303.57583498601,8229.040014430784 L 16303.57583498579,7529.040014431293 L 15603.57583498637,7529.040014431512 L 15603.57583498608,8229.040014431293 Z" fill="none" stroke="black" stroke-width="17.384000000018514" /><path d="M 15603.57583498928,16229.04001443523 L 15603.57583498841,15529.04001443479 L 16303.57583498783,15529.04001443465 L 16303.57583498943,16229.04001443596 Z" fill="none" stroke="black" stroke-width="17.384000000018514" /><path d="M -396.4241650150857,8229.04001443334 L 303.5758349848415,8229.040014432758 L 303.5758349850598,7529.040014432976 L -396.424165015304,7529.040014433849 Z" fill="none" stroke="black" stroke-width="17.384000000018514" /><path d="M -396.4241650130484,16229.04001443661 L 303.5758349870971,16229.04001443734 L 303.5758349873881,15529.04001443756 L -396.4241650132667,15529.04001443712 Z" fill="none" stroke="black" stroke-width="17.384000000018514" /><line stroke="black" stroke-width="17.384000000018514" x1="21593.1897946911" x2="21593.18923396137" y1="354.0400144313658" y2="1449.040014480768" /><path d="M 25258.21441779987,2816.745458561991 L 24843.55607853828,2383.088380122344" fill="none" stroke="black" stroke-width="17.384000000018514" /><path d="M 23731.30043495247,3495.298262589776 L 24145.95877421405,3928.955341029495" fill="none" stroke="black" stroke-width="17.384000000018514" /><path d="M 24969.10969884008,3093.184351403097 L 24692.67080599904,2804.079632443308 L 24158.62460033281,3363.411729228601 L 24435.06349317384,3652.516448188389" fill="none" stroke="black" stroke-width="17.384000000018514" /><line stroke="black" stroke-width="17.384000000018514" x1="24435.06349317384" x2="24145.95877421405" y1="3652.516448188389" y2="3928.955341029495" /><line stroke="black" stroke-width="17.384000000018514" x1="24969.10969884008" x2="25258.21441779987" y1="3093.184351403097" y2="2816.745458561991" /><line stroke="black" stroke-width="17.384000000018514" x1="24830.89025241952" x2="24296.84404675329" y1="2948.631991923166" y2="3507.964088708531" /><line stroke="black" stroke-width="17.384000000018514" x1="21533.18970808057" x2="21533.18970808145" y1="1449.040014480915" y2="2839.039148737493" /><line stroke="black" stroke-width="17.384000000018514" x1="21533.18970808159" x2="21533.18970808305" y1="2959.039148737493" y2="4339.039148737493" /><line stroke="black" stroke-width="17.384000000018514" x1="21533.18970808312" x2="21533.18970808458" y1="4459.039148737493" y2="5839.039148737493" /><line stroke="black" stroke-width="17.384000000018514" x1="21533.18970808472" x2="21533.18970808625" y1="5959.039148737493" y2="7219.039148737493" /><line stroke="black" stroke-width="17.384000000018514" x1="22703.57583498921" x2="22703.57583498884" y1="16629.04001443147" y2="16229.04001443457" /><line stroke="black" stroke-width="17.384000000018514" x1="21833.57583498892" x2="21833.57583498651" y1="16359.04001443239" y2="13833.51795980335" /><line stroke="black" stroke-width="17.384000000018514" x1="24123.57583499037" x2="24123.57583499023" y1="17829.04001443417" y2="17629.04001443257" /><line stroke="black" stroke-width="17.384000000018514" x1="24523.57583499037" x2="24523.57583499023" y1="17829.04001443384" y2="17629.04001443297" /><line stroke="black" stroke-width="17.384000000018514" x1="24923.57583499037" x2="24923.57583499023" y1="17829.04001443344" y2="17629.04001443337" /><line stroke="black" stroke-width="17.384000000018514" x1="25323.57583499037" x2="25323.57583499023" y1="17829.04001443311" y2="17629.04001443373" /><line stroke="black" stroke-width="17.384000000018514" x1="25723.57583499037" x2="25723.57583499023" y1="17829.04001443275" y2="17629.04001443413" /><line stroke="black" stroke-width="17.384000000018514" x1="26123.57583499045" x2="26123.57583499023" y1="17829.04001443238" y2="17629.04001443457" /><line stroke="black" stroke-width="17.384000000018514" x1="26523.57583499037" x2="26523.57583499023" y1="17829.04001443206" y2="17629.04001443493" /><line stroke="black" stroke-width="17.384000000018514" x1="26923.57583499037" x2="26923.57583499023" y1="17829.04001443169" y2="17629.04001443533" /><line stroke="black" stroke-width="17.384000000018514" x1="26973.57583503235" x2="26973.57583503221" y1="17829.04001443166" y2="17629.04001443606" /><line stroke="black" stroke-width="17.384000000018514" x1="27373.57583503243" x2="27373.57583503221" y1="17829.04001443129" y2="17629.04001443573" /><path d="M 21593.18909586418,2839.03914873742 L 21593.18909586433,2959.03914873742 L 21473.18909586433,2959.039148737565 L 21473.18909586418,2839.039148737565 Z" fill="none" stroke="black" stroke-width="17.384000000018514" /><path d="M 21593.18909586346,4339.03914873742 L 21593.1890958636,4459.03914873742 L 21473.1890958636,4459.039148737566 L 21473.18909586353,4339.039148737566 Z" fill="none" stroke="black" stroke-width="17.384000000018514" /><path d="M 21593.1890958628,5839.03914873742 L 21593.18909586287,5959.03914873742 L 21473.18909586287,5959.039148737565 L 21473.18909586273,5839.039148737565 Z" fill="none" stroke="black" stroke-width="17.384000000018514" /><path d="M 19210.88246542433,8229.040014427437 L 19210.88246542418,8109.040014427437 L 21473.18909586287,8109.040014425182 L 21473.18909586218,7339.039148738184 L 21593.18909586211,7339.039148738038 L 21593.18909587211,8229.040014425109 Z" fill="none" stroke="black" stroke-width="17.384000000018514" /><line stroke="black" stroke-width="17.384000000018514" x1="23048.88018671747" x2="23023.48016738794" y1="12243.69840113336" y2="12243.73563670938" /><path d="M 23843.48020604917,15378.51795980615 L 23843.48020604903,15328.51795980619 L 23818.48020604896,15303.51795980615 L 23868.48020604896,15253.51795980608 L 23818.48020604888,15203.51795980615 L 23868.48020604874,15153.51795980601 L 23818.48020604866,15103.51795980611 L 23868.48020604859,15053.51795980601 L 23818.48020604852,15003.51795980611 L 23868.48020604845,14953.51795980601 L 23818.48020604837,14903.51795980608 L 23868.48020604823,14853.51795980601 L 23818.48020604815,14803.51795980611 L 23868.48020604808,14753.51795980601 L 23818.48020604801,14703.51795980611 L 23868.48020604794,14653.51795980597 L 23818.48020604779,14603.51795980601 L 23868.48020604779,14553.51795980593 L 23843.48020604772,14528.51795980597 L 23843.48020604757,14453.51795980408" fill="none" stroke="black" stroke-width="17.384000000018514" /><path d="M 23843.48020604808,14333.51795980473 L 23843.48020604801,14283.5179598047 L 23818.48020604801,14258.51795980477 L 23868.48020604794,14208.51795980466 L 23818.48020604786,14158.51795980473 L 23868.48020604772,14108.51795980462 L 23818.48020604765,14058.51795980473 L 23868.48020604757,14008.51795980459 L 23818.4802060475,13958.5179598047 L 23868.48020604743,13908.51795980459 L 23818.48020604735,13858.51795980462 L 23868.48020604721,13808.51795980462 L 23818.48020604714,13758.5179598047 L 23868.48020604706,13708.51795980459 L 23818.48020604699,13658.51795980466 L 23868.48020604692,13608.51795980455 L 23818.48020604677,13558.51795980459 L 23868.4802060467,13508.51795980455 L 23843.4802060467,13483.51795980455 L 23843.48020604655,13408.51795980262" fill="none" stroke="black" stroke-width="17.384000000018514" /><path d="M 23843.48020604714,13288.51795980335 L 23843.48020604699,13238.51795980335 L 23818.48020604699,13213.51795980335 L 23868.48020604692,13163.51795980324 L 23818.48020604685,13113.51795980335 L 23868.4802060467,13063.5179598032 L 23818.4802060467,13013.51795980335 L 23868.48020604655,12963.5179598032 L 23818.48020604648,12913.51795980328 L 23868.48020604641,12863.5179598032 L 23818.48020604634,12813.51795980328 L 23868.48020604619,12763.5179598032 L 23818.48020604612,12713.51795980328 L 23868.48020604604,12663.5179598032 L 23818.48020604597,12613.51795980328 L 23868.4802060459,12563.5179598032 L 23818.48020604583,12513.5179598032 L 23868.48020604568,12463.51795980313 L 23843.48020604568,12438.5179598032 L 23843.48020604554,12363.51795980124" fill="none" stroke="black" stroke-width="17.384000000018514" /><line stroke="black" stroke-width="17.384000000018514" x1="20808.57583499466" x2="19188.57583499496" y1="11969.17853659717" y2="11969.04001442773" /><circle cx="19688.57583499437" cy="11669.04001442707" fill="none" r="200.0" stroke="black" stroke-width="17.384000000018514" /><path d="M 31503.57583499379,15629.04001443188 L 31503.57583499372,15579.04001443184 L 31478.57583499365,15554.04001443188 L 31528.57583499357,15504.0400144318 L 31478.5758349935,15454.04001443184 L 31528.57583499343,15404.04001443177 L 31478.57583499336,15354.04001443184 L 31528.57583499328,15304.04001443173 L 31478.57583499321,15254.0400144318 L 31528.57583499314,15204.04001443169 L 31478.57583499306,15154.0400144318 L 31528.57583499292,15104.04001443173 L 31478.57583499285,15054.0400144318 L 31528.57583499277,15004.04001443173 L 31478.5758349927,14954.0400144318 L 31528.57583499256,14904.04001443169 L 31478.57583499248,14854.04001443177 L 31528.57583499241,14804.04001443162 L 31503.57583499241,14779.04001443166 L 31503.57583499226,14704.0400144298" fill="none" stroke="black" stroke-width="17.384000000018514" /><path d="M 31503.57583499226,14679.04001442886 L 31503.57583499219,14629.04001442886 L 31478.57583499219,14604.04001442886 L 31528.57583499212,14554.04001442882 L 31478.57583499205,14504.04001442886 L 31528.5758349919,14454.04001442875 L 31478.57583499183,14404.04001442882 L 31528.57583499175,14354.04001442875 L 31478.57583499168,14304.04001442882 L 31528.57583499161,14254.04001442875 L 31478.57583499154,14204.04001442878 L 31528.57583499139,14154.04001442875 L 31478.57583499132,14104.04001442878 L 31528.57583499125,14054.04001442875 L 31478.57583499117,14004.04001442878 L 31528.57583499103,13954.04001442864 L 31478.57583499103,13904.04001442875 L 31528.57583499095,13854.04001442864 L 31503.57583499088,13829.04001442871 L 31503.57583499074,13754.04001442678" fill="none" stroke="black" stroke-width="17.384000000018514" /><path d="M 31503.57583499081,13729.04001442591 L 31503.57583499074,13679.04001442591 L 31478.57583499066,13654.04001442591 L 31528.57583499059,13604.0400144258 L 31478.57583499052,13554.04001442587 L 31528.57583499037,13504.04001442576 L 31478.5758349903,13454.04001442584 L 31528.57583499023,13404.04001442576 L 31478.57583499015,13354.04001442584 L 31528.57583499008,13304.04001442573 L 31478.57583499001,13254.0400144258 L 31528.57583498986,13204.04001442576 L 31478.57583498979,13154.04001442587 L 31528.57583498972,13104.04001442576 L 31478.57583498964,13054.04001442584 L 31528.57583498957,13004.04001442576 L 31478.57583498943,12954.04001442576 L 31528.57583498935,12904.04001442569 L 31503.57583498935,12879.04001442576 L 31503.57583498921,12804.0400144238" fill="none" stroke="black" stroke-width="17.384000000018514" /><line stroke="black" stroke-width="17.384000000018514" x1="29053.57583502843" x2="29053.57583502966" y1="14149.0400144282" y2="16009.04001443162" /><circle cx="29368.57583501038" cy="14549.0400144282" fill="none" r="200.0" stroke="black" stroke-width="17.384000000018514" /><circle cx="29368.57583501089" cy="15079.04001442976" fill="none" r="200.0" stroke="black" stroke-width="17.384000000018514" /><circle cx="29368.57583501053" cy="15609.04001443158" fill="none" r="200.0" stroke="black" stroke-width="17.384000000018514" /><path d="M 30138.57583501038,14329.04001442926 L 30138.5758350114,15829.04001442926 L 29738.57583501169,15829.04001442969 L 29738.57583501009,14329.04001442969 Z" fill="none" stroke="black" stroke-width="17.384000000018514" /><line stroke="black" stroke-width="17.384000000018514" x1="32503.57583498855" x2="32503.57583499015" y1="16129.04001443079" y2="17829.0400144322" /><path d="M 32503.57583495123,12829.04001442191 L 32503.57583499474,15629.04001443089 L 31703.5758349879,15629.040014431 L 31703.57583498819,16129.04001443093 L 32503.57583498746,16129.04001443079 L 32503.5758349879,17829.0400144322 L 30703.57583499023,17829.04001443242 L 30703.57583499023,17791.54001443213 L 30583.57583499015,17791.54001443213 L 30583.57583499015,17829.04001443407 L 27853.5758350309,17829.04001443671 L 27853.57583502966,15979.04001443075 L 27733.57583502966,15979.04001443082 L 27733.57583502937,17829.04001443373 L 27733.57583502966,15979.04001443082" fill="none" stroke="black" stroke-width="17.384000000018514" /><line stroke="black" stroke-width="17.384000000018514" x1="27078.57583504021" x2="27733.57583502988" y1="16269.04001443733" y2="16269.04001443672" /><path d="M 23723.57583499023,17629.0400144322 L 27373.5758350293,17629.0400144365" fill="none" stroke="black" stroke-width="17.384000000018514" /><path d="M 27533.57583502682,17469.04001443871 L 27533.57583500798,16269.04001443952" fill="none" stroke="black" stroke-width="17.384000000018514" /><path d="M 23723.57583498972,17174.04001444301 L 27078.57583504007,17174.04001444701 L 27078.57583502333,16269.04001444577" fill="none" stroke="black" stroke-width="17.384000000018514" /><path d="M 23723.57583498972,17224.04001444301 L 27128.57583504101,17224.04001444708 L 27128.57583502333,16269.04001444512" fill="none" stroke="black" stroke-width="17.384000000018514" /><path d="M 23723.57583498964,17274.04001444304 L 27178.57583504196,17274.04001444712 L 27178.57583502333,16269.04001444443" fill="none" stroke="black" stroke-width="17.384000000018514" /><path d="M 23723.57583498964,17324.04001444304 L 27228.57583504283,17324.04001444719 L 27228.57583502333,16269.0400144437" fill="none" stroke="black" stroke-width="17.384000000018514" /><path d="M 23723.57583498957,17374.04001444301 L 27278.57583504378,17374.04001444723 L 27278.57583502333,16269.04001444301" fill="none" stroke="black" stroke-width="17.384000000018514" /><path d="M 23723.5758349895,17424.04001444304 L 27328.57583504472,17424.0400144473 L 27328.57583502333,16269.04001444232" fill="none" stroke="black" stroke-width="17.384000000018514" /><path d="M 23723.5758349895,17474.04001444301 L 27378.5758350456,17474.0400144473 L 27378.57583502333,16269.04001444159" fill="none" stroke="black" stroke-width="17.384000000018514" /><path d="M 23723.57583498943,17524.04001444304 L 27428.57583504654,17524.04001444737 L 27428.57583502333,16269.04001444097" fill="none" stroke="black" stroke-width="17.384000000018514" /><path d="M 23723.57583498935,17574.04001444304 L 27428.57583501831,17574.04001444741" fill="none" stroke="black" stroke-width="17.384000000018514" /><path d="M 27478.57583504654,17524.04001441914 L 27478.57583502333,16269.04001444028" fill="none" stroke="black" stroke-width="17.384000000018514" /><line stroke="black" stroke-width="17.384000000018514" x1="23603.57583498884" x2="22703.57583498884" y1="16229.0400144337" y2="16229.04001443457" /><line stroke="black" stroke-width="17.384000000018514" x1="27733.57583500507" x2="27533.57583500798" y1="16269.04001443672" y2="16269.04001443948" /><line stroke="black" stroke-width="17.384000000018514" x1="27733.5758350106" x2="27533.57583501424" y1="16669.04001443671" y2="16669.04001443948" /><line stroke="black" stroke-width="17.384000000018514" x1="27733.57583501613" x2="27533.57583502057" y1="17069.04001443671" y2="17069.04001443948" /><line stroke="black" stroke-width="17.384000000018514" x1="27733.57583502166" x2="27533.5758350261" y1="17469.04001443675" y2="17469.04001443948" /><line stroke="black" stroke-width="17.384000000018514" x1="23483.57583498972" x2="23483.57591567107" y1="10229.04001442307" y2="10349.04001442307" /><line stroke="black" stroke-width="17.384000000018514" x1="27078.57583504007" x2="27453.57583502974" y1="17174.04001444701" y2="17549.04001443595" /><line stroke="black" stroke-width="17.384000000018514" x1="27533.5758350261" x2="27373.57583502937" y1="17469.04001443948" y2="17629.04001443646" /><path d="M 15568.70951669986,13060.6808667253 L 16770.30671306497,12162.81440800921 L 16321.37348370696,11562.01580982662 L 15119.77628734178,12459.88226854271 Z" fill="none" stroke="black" stroke-width="17.384000000018514" /><path d="M 15568.7095166976,11760.68086672399 L 16770.30671306271,10862.8144080079 L 16321.3734837047,10262.01580982531 L 15119.77628733952,11159.8822685414 Z" fill="none" stroke="black" stroke-width="17.384000000018514" /><path d="M 20338.57583499699,13563.51795980488 L 20338.57583499983,16309.04001443384 L 17745.17583498873,16309.04001443661 L 17745.17583498582,13563.5179598075" fill="none" stroke="black" stroke-width="17.384000000018514" /><path d="M 20283.57583500783,13563.51795980495 L 20283.57583501067,16254.04001444483 L 17800.17583497782,16254.04001444738 L 17800.17583497491,13563.51795980742" fill="none" stroke="black" stroke-width="17.384000000018514" /><path d="M 20228.57583501875,13563.51795980495 L 20228.57583502144,16199.04001445574 L 17855.1758349669,16199.04001445815 L 17855.17583496407,13563.51795980735" fill="none" stroke="black" stroke-width="17.384000000018514" /><path d="M 20173.57583502959,13563.51795980502 L 20173.57583503228,16144.04001446666 L 17910.17583495599,16144.04001446906 L 17910.17583495323,13563.51795980735" fill="none" stroke="black" stroke-width="17.384000000018514" /><path d="M 20118.57583504043,13563.5179598051 L 20118.57583504312,16089.04001447764 L 17965.175834945,16089.04001447983 L 17965.17583494231,13563.51795980728" fill="none" stroke="black" stroke-width="17.384000000018514" /><path d="M 20063.57583505134,13563.51795980517 L 20063.57583505389,16034.04001448856 L 18020.17583493409,16034.0400144906 L 18020.17583493147,13563.51795980721" fill="none" stroke="black" stroke-width="17.384000000018514" /><path d="M 20008.57583506218,13563.51795980517 L 20008.57583506473,15979.04001449947 L 18075.17583492318,15979.04001450144 L 18075.17583492063,13563.51795980713" fill="none" stroke="black" stroke-width="17.384000000018514" /><path d="M 19953.5758350731,13563.51795980524 L 19953.5758350755,15924.04001451038 L 18130.17583491226,15924.04001451228 L 18130.17583490972,13563.51795980706" fill="none" stroke="black" stroke-width="17.384000000018514" /><line stroke="black" stroke-width="17.384000000018514" x1="18130.17583491226" x2="17745.17583498873" y1="15924.04001451228" y2="16309.04001443661" /><line stroke="black" stroke-width="17.384000000018514" x1="19953.5758350755" x2="20338.57583499983" y1="15924.04001451038" y2="16309.04001443384" /><line stroke="black" stroke-width="17.384000000018514" x1="18130.17583490972" x2="17545.17583498582" y1="13563.51795980706" y2="13563.51795980772" /><line stroke="black" stroke-width="17.384000000018514" x1="17745.17583498626" x2="17545.17583498619" y1="13963.5179598075" y2="13963.51795980772" /><line stroke="black" stroke-width="17.384000000018514" x1="17745.17583498662" x2="17545.17583498662" y1="14363.5179598075" y2="14363.51795980772" /><line stroke="black" stroke-width="17.384000000018514" x1="17745.17583498706" x2="17545.17583498706" y1="14763.5179598075" y2="14763.51795980772" /><line stroke="black" stroke-width="17.384000000018514" x1="17745.1758349875" x2="17545.1758349875" y1="15163.5179598075" y2="15163.51795980772" /><line stroke="black" stroke-width="17.384000000018514" x1="17745.17583498793" x2="17545.17583498793" y1="15563.51795980758" y2="15563.51795980772" /><line stroke="black" stroke-width="17.384000000018514" x1="17745.1758349883" x2="17545.1758349883" y1="15963.51795980758" y2="15963.51795980772" /><line stroke="black" stroke-width="17.384000000018514" x1="17745.17583498582" x2="17545.17583498582" y1="13563.5179598075" y2="13563.51795980772" /><line stroke="black" stroke-width="17.384000000018514" x1="17745.17583498582" x2="17545.17583498582" y1="13563.5179598075" y2="13563.51795980772" /><line stroke="black" stroke-width="17.384000000018514" x1="19953.5758350731" x2="20538.57583499699" y1="13563.51795980524" y2="13563.51795980466" /><line stroke="black" stroke-width="17.384000000018514" x1="17745.17583498873" x2="17545.17583498873" y1="16309.04001443661" y2="16309.04001443676" /><line stroke="black" stroke-width="17.384000000018514" x1="17745.17583498873" x2="17745.17583498895" y1="16309.04001443661" y2="16509.04001443661" /><line stroke="black" stroke-width="17.384000000018514" x1="20338.57583499983" x2="20338.57583500005" y1="16309.04001443384" y2="16509.04001443391" /><line stroke="black" stroke-width="17.384000000018514" x1="20338.57583499983" x2="20538.5758349999" y1="16309.04001443384" y2="16309.0400144337" /><line stroke="black" stroke-width="17.384000000018514" x1="18143.85583499094" x2="18143.85583499116" y1="16309.04001443618" y2="16509.04001443618" /><line stroke="black" stroke-width="17.384000000018514" x1="18542.53583499322" x2="18542.53583499343" y1="16309.04001443574" y2="16509.04001443574" /><line stroke="black" stroke-width="17.384000000018514" x1="18941.21583499542" x2="18941.21583499564" y1="16309.04001443537" y2="16509.04001443529" /><line stroke="black" stroke-width="17.384000000018514" x1="19939.89583499763" x2="19939.89583499784" y1="16309.04001443428" y2="16509.04001443428" /><line stroke="black" stroke-width="17.384000000018514" x1="20338.57583499743" x2="20538.5758349975" y1="13963.5179598048" y2="13963.51795980466" /><line stroke="black" stroke-width="17.384000000018514" x1="20338.57583499787" x2="20538.57583499787" y1="14363.5179598048" y2="14363.51795980459" /><line stroke="black" stroke-width="17.384000000018514" x1="20338.5758349983" x2="20538.5758349983" y1="14763.5179598048" y2="14763.51795980466" /><line stroke="black" stroke-width="17.384000000018514" x1="20338.57583499874" x2="20538.57583499874" y1="15163.5179598048" y2="15163.51795980459" /><line stroke="black" stroke-width="17.384000000018514" x1="20338.5758349991" x2="20538.57583499918" y1="15563.51795980488" y2="15563.51795980466" /><line stroke="black" stroke-width="17.384000000018514" x1="20338.57583499954" x2="20538.57583499961" y1="15963.51795980488" y2="15963.51795980459" /><path d="M 23731.300434952325,3495.2982625908676 A 1345.339229998911,1345.339229998911 0 0 1 24843.556078535432,2383.088380122897" fill="none" stroke="black" stroke-width="17.384000000018514" /><path d="M 15528.57583498115,604.040014442489 L 15528.57583498115,604.040014442489 L 378.5758010069221,604.0400144495038 Z" fill="none" stroke="black" stroke-width="17.384000000018514" /><line stroke="black" stroke-width="17.384000000018514" x1="31703.57583502173" x2="31703.57583501949" y1="7629.040014425327" y2="5114.040014179255" /><path d="M 31853.57583502544,8529.040014425182 L 32353.5758350221,8679.040014424672 L 32503.57583498845,11429.04001375542 L 32503.57583498593,9749.040014413904" fill="none" stroke="black" stroke-width="17.384000000018514" /><line stroke="black" stroke-width="17.384000000018514" x1="31703.57583502297" x2="31703.57583502378" y1="8129.0400144254" y2="9084.040014426491" /><path d="M 31953.57583501824,829.0400144318023 L 31953.57583501796,354.0400144259884 L 23528.57589899531,354.0409617811166 L 23528.5758989956,604.0409617838087 L 25583.57583501547,604.0407236407923" fill="none" stroke="black" stroke-width="17.384000000018514" /><line stroke="black" stroke-width="17.384000000018514" x1="28903.91780525639" x2="28783.91780525639" y1="2988.236421012107" y2="2988.236421012179" /><path d="M 24937.87526807817,4721.003798143638 L 26069.24611797553,3589.632948244098 L 26564.2208648066,4084.607695074219 L 25432.85001490924,5215.978544973759 Z" fill="none" stroke="black" stroke-width="17.384000000018514" /><path d="M 25574.27137114635,5074.557188736353 L 25220.71798055277,4721.00379814342 L 26069.24611797582,3872.475660718692 L 26422.79950856948,4226.029051311625" fill="none" stroke="black" stroke-width="17.384000000018514" /><line stroke="black" stroke-width="17.384000000018514" x1="28783.575835017" x2="26703.575835017" y1="2234.334386944529" y2="2234.334386946566" /><line stroke="black" stroke-width="17.384000000018514" x1="28183.57583501708" x2="28183.57583501547" y1="2234.334386945111" y2="604.0400144298378" /><line stroke="black" stroke-width="17.384000000018514" x1="29053.57583502442" x2="31553.57583502442" y1="9954.039997966238" y2="9954.039997963764" /><circle cx="20308.57583499459" cy="11669.04001442635" fill="none" r="200.0" stroke="black" stroke-width="17.384000000018514" /><line stroke="black" stroke-width="17.384000000018514" x1="27883.57583502624" x2="28783.57583502624" y1="11624.0400144302" y2="11624.04001442933" /><line stroke="black" stroke-width="17.384000000018514" x1="27883.57583502639" x2="28783.57583502639" y1="11704.0400144302" y2="11704.04001442933" /><line stroke="black" stroke-width="17.384000000018514" x1="27883.57583502639" x2="28783.57583502719" y1="11704.0400144302" y2="12604.04001442933" /><line stroke="black" stroke-width="17.384000000018514" x1="27883.57583502719" x2="28783.57583502639" y1="12604.04001443013" y2="11704.04001442933" /><line stroke="black" stroke-width="17.384000000018514" x1="27733.57583502624" x2="26083.48020604641" y1="11624.04001443035" y2="11624.04001443195" /><line stroke="black" stroke-width="17.384000000018514" x1="27043.48020604393" x2="27843.48020604393" y1="9024.04001443093" y2="9024.040014430202" /><line stroke="black" stroke-width="17.384000000018514" x1="27043.48020604568" x2="27843.48020604568" y1="10824.040014431" y2="10824.0400144302" /><line stroke="black" stroke-width="17.384000000018514" x1="27043.48020604393" x2="27043.48020604568" y1="9024.04001443093" y2="10824.040014431" /><line stroke="black" stroke-width="17.384000000018514" x1="27843.48020604393" x2="27843.48020604568" y1="9024.040014430202" y2="10824.0400144302" /><circle cx="26352.08880853741" cy="5003.811265639952" fill="none" r="350.0" stroke="black" stroke-width="17.384000000018514" /><path d="M 25563.10720566206,8629.286532515005 L 25963.10714767347,8629.100003329702 L 25963.85326441469,9829.099771375373 L 25563.85332240327,9829.28630056075 L 25563.85310463931,9828.93606490569" fill="none" stroke="black" stroke-width="17.384000000018514" /><path d="M 25564.03985155978,9829.286184582372 A 1276.400856663175,1276.400856663175 0 0 1 25563.10720566209,8629.286532514901" fill="none" stroke="black" stroke-width="17.384000000018514" /><line stroke="black" stroke-width="17.384000000018514" x1="26523.57583498492" x2="26523.57583498513" y1="12294.04001443129" y2="12494.04001442838" /><line stroke="black" stroke-width="17.384000000018514" x1="26973.5758350269" x2="26973.57583502712" y1="12294.04001443071" y2="12494.04001442635" /><line stroke="black" stroke-width="17.384000000018514" x1="27373.57583502697" x2="27373.57583502712" y1="12294.04001443035" y2="12494.04001442591" /><path d="M 26073.57583494315,12494.04001442926 L 27373.57583502428,12494.04001442518" fill="none" stroke="black" stroke-width="17.384000000018514" /><path d="M 27533.5758350221,12654.04001442264 L 27533.57583500565,13854.04001442184" fill="none" stroke="black" stroke-width="17.384000000018514" /><path d="M 26073.57583494366,12949.04001441834 L 27078.57583503592,12949.04001441521 L 27078.57583502093,13854.04001441638" fill="none" stroke="black" stroke-width="17.384000000018514" /><path d="M 26073.57583494359,12899.04001441834 L 27128.57583503679,12899.04001441507 L 27128.57583502093,13854.04001441696" fill="none" stroke="black" stroke-width="17.384000000018514" /><path d="M 26073.57583494359,12849.04001441834 L 27178.57583503752,12849.04001441485 L 27178.57583502093,13854.04001441758" fill="none" stroke="black" stroke-width="17.384000000018514" /><path d="M 26073.57583494352,12799.04001441842 L 27228.57583503839,12799.04001441478 L 27228.57583502093,13854.0400144182" fill="none" stroke="black" stroke-width="17.384000000018514" /><path d="M 26073.57583494344,12749.04001441842 L 27278.57583503919,12749.04001441456 L 27278.57583502093,13854.04001441878" fill="none" stroke="black" stroke-width="17.384000000018514" /><path d="M 26073.57583494337,12699.04001441834 L 27328.57583503999,12699.04001441441 L 27328.57583502093,13854.0400144194" fill="none" stroke="black" stroke-width="17.384000000018514" /><path d="M 26073.5758349433,12649.04001441834 L 27378.57583504087,12649.04001441427 L 27378.57583502093,13854.04001441998" fill="none" stroke="black" stroke-width="17.384000000018514" /><path d="M 26073.5758349433,12599.04001441842 L 27428.57583504167,12599.04001441412 L 27428.57583502093,13854.04001442056" fill="none" stroke="black" stroke-width="17.384000000018514" /><path d="M 26073.57583494322,12549.04001441842 L 27428.57583501336,12549.04001441412" fill="none" stroke="black" stroke-width="17.384000000018514" /><path d="M 27478.57583504167,12599.04001444228 L 27478.57583502093,13854.04001442114" fill="none" stroke="black" stroke-width="17.384000000018514" /><line stroke="black" stroke-width="17.384000000018514" x1="27733.5758350074" x2="27533.57583501111" y1="13454.0400144242" y2="13454.04001442184" /><line stroke="black" stroke-width="17.384000000018514" x1="27733.5758350122" x2="27533.57583501657" y1="13054.04001442416" y2="13054.04001442184" /><line stroke="black" stroke-width="17.384000000018514" x1="27733.57583501693" x2="27533.57583502137" y1="12654.04001442424" y2="12654.04001442184" /><line stroke="black" stroke-width="17.384000000018514" x1="27078.57583503592" x2="27453.57583502486" y1="12949.04001441521" y2="12574.04001442555" /><line stroke="black" stroke-width="17.384000000018514" x1="27533.57583502137" x2="27373.57583502428" y1="12654.04001442184" y2="12494.04001442518" /><line stroke="black" stroke-width="17.384000000018514" x1="27733.57583500769" x2="27078.57583502093" y1="13854.04001442416" y2="13854.04001441638" /><line stroke="black" stroke-width="17.384000000018514" x1="26073.57583494301" x2="26073.57583494366" y1="12294.04001443173" y2="12949.04001441834" /><path d="M 24303.57583498652,7529.040014429693 L 24303.57583498732,5355.30323123573 L 23703.57583502006,5355.303231236312 L 23703.57583502231,7529.040014430275 L 24303.57583498652,7529.040014429693" fill="none" stroke="black" stroke-width="17.384000000018514" /><path d="M 21593.18909586207,7219.039148738002 L 21593.18909586215,7339.039148738075 L 21473.18909586215,7339.039148738148 L 21473.18909586207,7219.039148738148 Z" fill="none" stroke="black" stroke-width="17.384000000018514" /><path d="M 32281.62609940413,11908.76444560337 L 31931.6260994045,11908.76444560373 L 31931.62609940479,12258.76444560337 L 32281.6260994045,12258.764445603 Z" fill="none" stroke="black" stroke-width="17.384000000018514" /><path d="M 32311.62609940406,11878.76444560337 L 31901.62609940442,11878.76444560373 L 31901.62609940486,12288.76444560337 L 32311.6260994045,12288.76444560293 Z" fill="none" stroke="black" stroke-width="17.384000000018514" /><path d="M 32321.62609940406,11868.76444560337 L 31891.62609940442,11868.7644456038 L 31891.62609940486,12298.76444560337 L 32321.6260994045,12298.764445603 Z" fill="none" stroke="black" stroke-width="17.384000000018514" /><path d="M 32321.62609940406,11853.76444560337 L 31891.62609940442,11853.7644456038 L 31876.6260994045,11868.7644456038 L 31876.62609940486,12298.76444560337 L 31891.62609940486,12313.76444560337 L 32321.6260994045,12313.76444560293 L 32336.6260994045,12298.76444560293 L 32336.62609940406,11868.76444560337 Z" fill="none" stroke="black" stroke-width="17.384000000018514" /><path d="M 31886.62609940442,11803.7644456038 L 32326.62609940399,11803.76444560344" fill="none" stroke="black" stroke-width="17.384000000018514" /><path d="M 31886.62609940442,11828.7644456038 L 32326.62609940399,11828.76444560337" fill="none" stroke="black" stroke-width="17.384000000018514" /><line stroke="black" stroke-width="17.384000000018514" x1="32281.6260994045" x2="32311.6260994045" y1="12258.764445603" y2="12288.76444560293" /><line stroke="black" stroke-width="17.384000000018514" x1="32311.62609940406" x2="32281.62609940413" y1="11878.76444560337" y2="11908.76444560337" /><path d="M 32311.62609940406,11853.76444560337 L 32311.62609940406,11828.76444560344 L 32301.62609940406,11828.76444560344 L 32301.62609940406,11853.76444560337 Z" fill="none" stroke="black" stroke-width="17.384000000018514" /><path d="M 32326.62609940399,11803.76444560344 L 32326.62609940399,11828.76444560337" fill="none" stroke="black" stroke-width="17.384000000018514" /><path d="M 31826.6260994045,11863.7644456038 L 31826.62609940493,12303.76444560344" fill="none" stroke="black" stroke-width="17.384000000018514" /><path d="M 31851.6260994045,11863.7644456038 L 31851.62609940493,12303.76444560344" fill="none" stroke="black" stroke-width="17.384000000018514" /><path d="M 31851.62609940493,12303.76444560344 L 31826.62609940493,12303.76444560344" fill="none" stroke="black" stroke-width="17.384000000018514" /><line stroke="black" stroke-width="17.384000000018514" x1="31931.62609940479" x2="31901.62609940486" y1="12258.76444560337" y2="12288.76444560337" /><path d="M 31876.62609940486,12288.76444560337 L 31851.62609940493,12288.76444560344 L 31851.62609940493,12278.76444560344 L 31876.62609940486,12278.76444560344 Z" fill="none" stroke="black" stroke-width="17.384000000018514" /><line stroke="black" stroke-width="17.384000000018514" x1="31931.6260994045" x2="31901.62609940442" y1="11908.76444560373" y2="11878.76444560373" /><path d="M 31851.6260994045,11863.7644456038 L 31826.6260994045,11863.7644456038" fill="none" stroke="black" stroke-width="17.384000000018514" /><path d="M 31901.62609940442,11853.7644456038 L 31901.62609940442,11828.7644456038 L 31911.62609940442,11828.7644456038 L 31911.62609940442,11853.76444560373 Z" fill="none" stroke="black" stroke-width="17.384000000018514" /><path d="M 31876.6260994045,11878.76444560373 L 31851.6260994045,11878.7644456038 L 31851.6260994045,11888.7644456038 L 31876.6260994045,11888.7644456038 Z" fill="none" stroke="black" stroke-width="17.384000000018514" /><path d="M 31886.62609940442,11803.7644456038 L 31886.62609940442,11828.7644456038" fill="none" stroke="black" stroke-width="17.384000000018514" /><line stroke="black" stroke-width="17.384000000018514" x1="29053.57583502435" x2="31553.57583311951" y1="9854.039621256807" y2="9854.039892206629" /><line stroke="black" stroke-width="17.384000000018514" x1="29053.57583502421" x2="31553.57584395748" y1="9754.03962125688" y2="9754.039892206702" /><line stroke="black" stroke-width="17.384000000018514" x1="29053.57583502413" x2="31553.57585479546" y1="9654.039621257023" y2="9654.039892206849" /><line stroke="black" stroke-width="17.384000000018514" x1="29053.57583502399" x2="31553.5758656335" y1="9554.039621257098" y2="9554.03989220692" /><line stroke="black" stroke-width="17.384000000018514" x1="29053.57583502391" x2="31553.57587647148" y1="9454.03962125717" y2="9454.039892206993" /><line stroke="black" stroke-width="17.384000000018514" x1="29053.57583502391" x2="31553.57587538765" y1="9464.03962125717" y2="9464.039892206993" /><line stroke="black" stroke-width="17.384000000018514" x1="29053.57583502399" x2="31553.57586454968" y1="9564.039621257098" y2="9564.03989220692" /><line stroke="black" stroke-width="17.384000000018514" x1="29053.57583502413" x2="31553.5758537117" y1="9664.039621257023" y2="9664.039892206849" /><line stroke="black" stroke-width="17.384000000018514" x1="29053.57583502435" x2="31553.57583203575" y1="9864.039621256807" y2="9864.039892206629" /><line stroke="black" stroke-width="17.384000000018514" x1="29053.57583502421" x2="31553.57584287373" y1="9764.039621256952" y2="9764.039892206702" /><line stroke="black" stroke-width="17.384000000018514" x1="29383.63410971328" x2="31553.57590072283" y1="9354.040014428747" y2="9354.04001442671" /><path d="M 31703.5758350237,9204.040014426491 L 28903.5758350237,9204.040014429183 L 28903.57583502697,12604.04001442918 L 29878.57583502697,12604.04001442824 L 28903.57583502697,12604.04001442918 L 28903.5758350237,9204.040014429183 L 31703.5758350237,9204.040014426491 L 31703.5758350261,11549.04001442635 L 32503.57583502515,11549.04001442547 L 32503.5758349871,12604.04001442576 L 30728.57583502697,12604.04001442744 L 32503.57583502624,12604.04001442576 L 32503.57583498863,11549.04001442547 L 32503.57583499021,12604.04001442576 L 32503.57583498668,11549.04001442547 L 31703.57583502588,11549.04001442627 Z" fill="none" stroke="black" stroke-width="17.384000000018514" /><path d="M 29878.57583502697,12604.04001442824 L 29878.57583502682,12454.04001442824 L 29053.57583502682,12454.04001442904 L 29053.57583502384,9354.040014429038 L 31553.57583502384,9354.04001442671 L 31553.57583502624,11699.04001442642 L 32353.57583501977,11699.04001442562 L 32353.57583499248,12454.04001442584 L 30728.57583502682,12454.04001442744 L 30728.57583502697,12604.04001442744" fill="none" stroke="black" stroke-width="17.384000000018514" /><line stroke="black" stroke-width="17.384000000018514" x1="29053.57583502442" x2="31553.57579993495" y1="9964.04000488349" y2="9964.040004881163" /><line stroke="black" stroke-width="17.384000000018514" x1="29653.57581856155" x2="29653.57581856388" y1="9964.040004882909" y2="12454.04001442846" /><line stroke="black" stroke-width="17.384000000018514" x1="29553.57544185219" x2="29553.57571172299" y1="9964.040004883054" y2="12454.04001442853" /><line stroke="black" stroke-width="17.384000000018514" x1="29453.57544185227" x2="29453.57571172306" y1="9964.040004883129" y2="12454.04001442868" /><line stroke="black" stroke-width="17.384000000018514" x1="29353.57544185241" x2="29353.57571172314" y1="9964.0400048832" y2="12454.04001442875" /><line stroke="black" stroke-width="17.384000000018514" x1="29253.57544185248" x2="29253.57571172328" y1="9964.040004883345" y2="12454.04001442882" /><line stroke="black" stroke-width="17.384000000018514" x1="29153.57544185256" x2="29153.57571172335" y1="9964.04000488349" y2="12454.04001442897" /><line stroke="black" stroke-width="17.384000000018514" x1="29163.57544185256" x2="29163.57571172335" y1="9964.040004883418" y2="12454.04001442897" /><line stroke="black" stroke-width="17.384000000018514" x1="29263.57544185241" x2="29263.57571172321" y1="9964.040004883273" y2="12454.04001442889" /><line stroke="black" stroke-width="17.384000000018514" x1="29363.57544185234" x2="29363.57571172314" y1="9964.040004883273" y2="12454.04001442875" /><line stroke="black" stroke-width="17.384000000018514" x1="29563.57544185219" x2="29563.57571172299" y1="9964.040004882982" y2="12454.0400144286" /><line stroke="black" stroke-width="17.384000000018514" x1="29463.57544185234" x2="29463.57571172299" y1="9964.040004883129" y2="12454.04001442868" /><line stroke="black" stroke-width="17.384000000018514" x1="29663.57582547888" x2="29663.57582548128" y1="9964.040004882909" y2="12454.04001442846" /><path d="M 21558.57583499714,13683.51795980357 L 21558.57583499728,13833.5179598035 L 22433.57583498651,13833.51795980277 L 22433.57583498899,16359.04001443173 L 20808.5758349999,16359.0400144334 L 20808.57583499714,13663.51795980408" fill="none" stroke="black" stroke-width="17.384000000018514" /><path d="M 20538.57583499699,13563.51795980466 L 20658.57583499699,13563.51795980466 L 20808.57583499707,13563.51795980451 L 20808.57583499714,13683.51795980437 L 20658.57583499714,13683.51795980459 L 20658.57583500005,16509.04001443355 L 22583.57583498914,16509.04001443158 L 22583.57583498637,13683.51795980255 L 21558.57583499714,13683.51795980357 L 21558.57583499707,13563.51795980357" fill="none" stroke="black" stroke-width="17.384000000018514" /><line stroke="black" stroke-width="17.384000000018514" x1="22423.57582806919" x2="22423.57582807159" y1="13833.51795980277" y2="16359.04001443173" /><line stroke="black" stroke-width="17.384000000018514" x1="22323.57545135983" x2="22323.57572123063" y1="13833.51795980288" y2="16359.0400144318" /><line stroke="black" stroke-width="17.384000000018514" x1="22223.5754513599" x2="22223.57572123077" y1="13833.51795980295" y2="16359.04001443191" /><line stroke="black" stroke-width="17.384000000018514" x1="22123.57545136005" x2="22123.57572123085" y1="13833.51795980306" y2="16359.04001443202" /><line stroke="black" stroke-width="17.384000000018514" x1="22023.57545136012" x2="22023.57572123092" y1="13833.51795980313" y2="16359.04001443213" /><line stroke="black" stroke-width="17.384000000018514" x1="21923.57545136019" x2="21923.57572123106" y1="13833.51795980328" y2="16359.04001443224" /><line stroke="black" stroke-width="17.384000000018514" x1="21933.57545136019" x2="21933.57572123099" y1="13833.51795980328" y2="16359.04001443224" /><line stroke="black" stroke-width="17.384000000018514" x1="22033.57545136012" x2="22033.57572123092" y1="13833.51795980313" y2="16359.04001443213" /><line stroke="black" stroke-width="17.384000000018514" x1="22133.57545136005" x2="22133.57572123085" y1="13833.51795980302" y2="16359.04001443199" /><line stroke="black" stroke-width="17.384000000018514" x1="22333.57545135983" x2="22333.57572123063" y1="13833.51795980284" y2="16359.04001443184" /><line stroke="black" stroke-width="17.384000000018514" x1="22233.57545135998" x2="22233.5757212307" y1="13833.51795980295" y2="16359.04001443191" /><path d="M 21490.81226480743,15793.24674506191 L 21140.81226480772,15793.2467450622 L 21140.81226480808,16143.24674506191 L 21490.81226480772,16143.24674506162 Z" fill="none" stroke="black" stroke-width="17.384000000018514" /><path d="M 21520.81226480736,15763.24674506191 L 21110.81226480772,15763.24674506234 L 21110.81226480808,16173.24674506198 L 21520.81226480779,16173.24674506154 Z" fill="none" stroke="black" stroke-width="17.384000000018514" /><path d="M 21530.81226480736,15753.24674506191 L 21100.81226480772,15753.24674506234 L 21100.81226480816,16183.24674506191 L 21530.81226480779,16183.24674506154 Z" fill="none" stroke="black" stroke-width="17.384000000018514" /><path d="M 21530.81226480728,15738.24674506198 L 21100.81226480772,15738.24674506234 L 21085.81226480772,15753.24674506234 L 21085.81226480816,16183.24674506198 L 21100.81226480816,16198.24674506191 L 21530.81226480779,16198.24674506154 L 21545.81226480772,16183.24674506147 L 21545.81226480728,15753.24674506191 Z" fill="none" stroke="black" stroke-width="17.384000000018514" /><path d="M 21095.81226480765,15688.24674506242 L 21535.81226480728,15688.24674506198" fill="none" stroke="black" stroke-width="17.384000000018514" /><path d="M 21095.81226480772,15713.24674506234 L 21535.81226480728,15713.24674506198" fill="none" stroke="black" stroke-width="17.384000000018514" /><line stroke="black" stroke-width="17.384000000018514" x1="21490.81226480772" x2="21520.81226480779" y1="16143.24674506162" y2="16173.24674506154" /><line stroke="black" stroke-width="17.384000000018514" x1="21520.81226480736" x2="21490.81226480743" y1="15763.24674506191" y2="15793.24674506191" /><path d="M 21520.81226480736,15738.24674506191 L 21520.81226480728,15713.24674506198 L 21510.81226480736,15713.24674506198 L 21510.81226480736,15738.24674506198 Z" fill="none" stroke="black" stroke-width="17.384000000018514" /><path d="M 21535.81226480728,15688.24674506198 L 21535.81226480728,15713.24674506198" fill="none" stroke="black" stroke-width="17.384000000018514" /><path d="M 21035.81226480779,15748.24674506242 L 21035.81226480823,16188.24674506198" fill="none" stroke="black" stroke-width="17.384000000018514" /><path d="M 21060.81226480779,15748.24674506234 L 21060.81226480823,16188.24674506198" fill="none" stroke="black" stroke-width="17.384000000018514" /><path d="M 21060.81226480823,16188.24674506198 L 21035.81226480823,16188.24674506198" fill="none" stroke="black" stroke-width="17.384000000018514" /><line stroke="black" stroke-width="17.384000000018514" x1="21140.81226480808" x2="21110.81226480808" y1="16143.24674506191" y2="16173.24674506198" /><path d="M 21085.81226480816,16173.24674506198 L 21060.81226480816,16173.24674506205 L 21060.81226480823,16163.24674506198 L 21085.81226480816,16163.24674506198 Z" fill="none" stroke="black" stroke-width="17.384000000018514" /><line stroke="black" stroke-width="17.384000000018514" x1="21140.81226480772" x2="21110.81226480772" y1="15793.2467450622" y2="15763.24674506234" /><path d="M 21060.81226480779,15748.24674506234 L 21035.81226480779,15748.24674506242" fill="none" stroke="black" stroke-width="17.384000000018514" /><path d="M 21110.81226480772,15738.24674506234 L 21110.81226480772,15713.24674506234 L 21120.81226480765,15713.24674506234 L 21120.81226480772,15738.24674506234 Z" fill="none" stroke="black" stroke-width="17.384000000018514" /><path d="M 21085.81226480772,15763.24674506234 L 21060.81226480779,15763.24674506234 L 21060.81226480779,15773.24674506234 L 21085.81226480779,15773.24674506234 Z" fill="none" stroke="black" stroke-width="17.384000000018514" /><path d="M 21095.81226480765,15688.24674506242 L 21095.81226480772,15713.24674506234" fill="none" stroke="black" stroke-width="17.384000000018514" /><line stroke="black" stroke-width="17.384000000018514" x1="30528.57583501758" x2="30528.57583501795" y1="2754.040014427655" y2="3204.040014427583" /><line stroke="black" stroke-width="17.384000000018514" x1="30078.57583501758" x2="30078.57583501795" y1="2754.040014428092" y2="3204.040014428092" /><line stroke="black" stroke-width="17.384000000018514" x1="30678.57583501751" x2="29928.57583501751" y1="2754.040014427437" y2="2754.040014428237" /><path d="M 30678.57583501795,3204.04001442751 L 30678.57583501627,1404.04001442751 L 29928.5758350162,1404.040014428164 L 29928.57583501795,3204.040014428237 Z" fill="none" stroke="black" stroke-width="17.384000000018514" /><line stroke="black" stroke-width="17.384000000018514" x1="30138.57583502151" x2="30138.57583502108" y1="6933.96540273955" y2="6483.96540273955" /><line stroke="black" stroke-width="17.384000000018514" x1="30738.57583502151" x2="29988.57583502151" y1="6933.965402738968" y2="6933.965402739695" /><path d="M 30738.57583502108,6483.965402738968 L 30738.57583502282,8283.965402738968 L 29988.5758350229,8283.965402739768 L 29988.57583502108,6483.965402739695 Z" fill="none" stroke="black" stroke-width="17.384000000018514" /><line stroke="black" stroke-width="17.384000000018514" x1="30588.57583502151" x2="30588.57583502108" y1="6933.965402739113" y2="6483.965402739186" /><line stroke="black" stroke-width="17.384000000018514" x1="30803.56671490601" x2="31703.56671490601" y1="4024.040012347968" y2="4024.040012347095" /><line stroke="black" stroke-width="17.384000000018514" x1="30803.56671490609" x2="31703.56671490609" y1="4104.040012347969" y2="4104.040012347096" /><line stroke="black" stroke-width="17.384000000018514" x1="30803.56671490609" x2="31703.56671490696" y1="4104.040012347969" y2="5004.040012347095" /><line stroke="black" stroke-width="17.384000000018514" x1="30803.56671490696" x2="31703.56671490609" y1="5004.040012347969" y2="4104.040012347096" /><line stroke="black" stroke-width="17.384000000018514" x1="29803.57583502028" x2="28903.57583502028" y1="5663.96540481931" y2="5663.96540482011" /><line stroke="black" stroke-width="17.384000000018514" x1="29803.5758350202" x2="28903.5758350202" y1="5583.96540481931" y2="5583.965404820183" /><line stroke="black" stroke-width="17.384000000018514" x1="29803.57583501933" x2="28903.5758350202" y1="4683.965404819237" y2="5583.965404820183" /><line stroke="black" stroke-width="17.384000000018514" x1="29803.5758350202" x2="28903.57583501933" y1="5583.96540481931" y2="4683.965404820183" /><line stroke="black" stroke-width="17.384000000018514" x1="30653.57583501875" x2="28903.82696796569" y1="4024.040012348114" y2="4023.242116923129" /><line stroke="black" stroke-width="17.384000000018514" x1="29953.57583502028" x2="31703.57583501999" y1="5663.965404819164" y2="5663.965404817563" /><line stroke="black" stroke-width="17.384000000018514" x1="29803.57583501897" x2="29803.57583501926" y1="4299.040014181074" y2="4574.040014181073" /><line stroke="black" stroke-width="17.384000000018514" x1="29783.57583501904" x2="29783.57583501926" y1="4299.040014181146" y2="4574.040014181073" /><path d="M 30353.695703028683,4445.068917489753 A 200.0,200.0 0 1 1 30384.604738204966,4414.159882313351" fill="none" stroke="black" stroke-width="17.384000000018514" /><circle cx="30412.69088109755" cy="4473.155060382542" fill="none" r="41.45946641889525" stroke="black" stroke-width="17.384000000018514" /><path d="M 30372.32448754654,4463.697702007985 L 30236.63362024058,4328.006834702237 L 30267.54265541695,4297.097799525864 L 30403.23352272291,4432.788666831466" fill="none" stroke="black" stroke-width="17.384000000018514" /><line stroke="black" stroke-width="17.384000000018514" x1="28903.48020603913" x2="29803.57583501897" y1="4299.040014181874" y2="4299.040014181074" /><line stroke="black" stroke-width="17.384000000018514" x1="28903.48020603913" x2="29783.57583501904" y1="4319.040014181874" y2="4319.040014181074" /><line stroke="black" stroke-width="17.384000000018514" x1="30803.57583502006" x2="30803.57583501984" y1="5388.965402986132" y2="5113.965402986132" /><line stroke="black" stroke-width="17.384000000018514" x1="30823.57583502006" x2="30823.57583501977" y1="5388.965402986132" y2="5113.965402986132" /><path d="M 30253.455967010486,5242.973805274577 A 200.0,200.0 0 1 1 30222.5469318342,5273.882840450984" fill="none" stroke="black" stroke-width="17.384000000018514" /><circle cx="30194.46078894147" cy="5214.887662381789" fill="none" r="41.45946641889525" stroke="black" stroke-width="17.384000000018514" /><path d="M 30234.82718249248,5224.345020756291 L 30370.51804979845,5360.035888061966 L 30339.60901462208,5390.944923238412 L 30203.91814731611,5255.254055932737" fill="none" stroke="black" stroke-width="17.384000000018514" /><line stroke="black" stroke-width="17.384000000018514" x1="31703.67146399989" x2="30803.57583502006" y1="5388.965402985332" y2="5388.965402986132" /><line stroke="black" stroke-width="17.384000000018514" x1="31703.67146399989" x2="30823.57583502006" y1="5368.965402985332" y2="5368.965402986132" /><path d="M 29903.5758350194,4703.965402739768 L 29903.5758350194,4674.040014181073 L 30703.57583501933,4674.040014180273 L 30703.57583501969,5014.040014180273 L 29903.57583501969,5014.040014181001 Z" fill="none" stroke="black" stroke-width="17.384000000018514" /><path d="M 27433.695703036254,12065.068917492603 A 200.0,200.0 0 1 1 27464.604738212536,12034.159882316202" fill="none" stroke="black" stroke-width="17.384000000018514" /><circle cx="27492.69088110512" cy="12093.15506038532" fill="none" r="41.45946641889525" stroke="black" stroke-width="17.384000000018514" /><path d="M 27452.32448755411,12083.69770201075 L 27316.63362024814,11948.00683470508 L 27347.54265542452,11917.09779952863 L 27483.23352273048,12052.7886668343" fill="none" stroke="black" stroke-width="17.384000000018514" /><line stroke="black" stroke-width="17.384000000018514" x1="26883.57583502653" x2="26883.57583502675" y1="11899.04001443115" y2="12174.04001443108" /><line stroke="black" stroke-width="17.384000000018514" x1="26863.57583502653" x2="26863.57583502675" y1="11899.04001443115" y2="12174.04001443115" /><line stroke="black" stroke-width="17.384000000018514" x1="26083.48020604663" x2="26883.57583502653" y1="11899.04001443195" y2="11899.04001443115" /><line stroke="black" stroke-width="17.384000000018514" x1="26083.4802060467" x2="26863.57583502653" y1="11919.04001443195" y2="11919.04001443115" /><line stroke="black" stroke-width="17.384000000018514" x1="24303.57583498703" x2="23718.2231071292" y1="6048.741334552678" y2="6048.895313947132" /><line stroke="black" stroke-width="17.384000000018514" x1="23718.06527471749" x2="24303.57583498681" y1="6729.040014430348" y2="6729.040014429766" /><path d="M 23862.036371532406,7254.1598824396 A 200.0,200.0 0 1 1 23892.945406708997,7285.06891761607" fill="none" stroke="black" stroke-width="17.384000000018514" /><path d="M 23843.40758701419,7272.788666957631 L 23979.09845431987,7137.097799651665 L 24010.00748949631,7168.006834828038 L 23874.31662219064,7303.697702133932" fill="none" stroke="black" stroke-width="17.384000000018514" /><circle cx="23833.95022863963" cy="7313.155060508643" fill="none" r="41.45946641889525" stroke="black" stroke-width="17.384000000018514" /><line stroke="black" stroke-width="17.384000000018514" x1="24713.48020604321" x2="24713.40248553428" y1="8228.900603697248" y2="8103.900603701468" /><line stroke="black" stroke-width="17.384000000018514" x1="24713.48394257566" x2="24303.5758349863" y1="8104.134150154778" y2="8104.643882619121" /><line stroke="black" stroke-width="17.384000000018514" x1="26422.79950856948" x2="26069.24611797582" y1="4226.029051311625" y2="3872.475660718692" /><line stroke="black" stroke-width="17.384000000018514" x1="25998.53543985792" x2="25644.98204926433" y1="4650.293120023989" y2="4296.739729431056" /><path d="M 26910.63011765018,3596.777086187931 L 26557.07672705667,3243.223695595143 L 26203.52333646388,3596.777086188513 L 26557.07672705754,3950.330476781446 Z" fill="none" stroke="black" stroke-width="17.384000000018514" /><path d="M 24945.01940602361,5562.387797818292 L 24591.46601543009,5208.834407225431 L 24945.0194060228,4855.281016631989 L 25298.57279661647,5208.834407224995 Z" fill="none" stroke="black" stroke-width="17.384000000018514" /><path d="M 28783.6637699536,4936.420774591234 L 28783.82080609754,4236.420792205745 L 28083.82082371205,4236.263756061808 L 28083.66378756811,4936.263738447224" fill="none" stroke="black" stroke-width="17.384000000018514" /><path d="M 28583.66377498631,4936.375907121537 L 28583.77594366055,4436.375919703342 L 28083.77595624236,4436.263751029101" fill="none" stroke="black" stroke-width="17.384000000018514" /><path d="M 28633.66377372815,4936.387123988961 L 28633.78715926982,4386.387137828924 L 28083.78717310978,4386.263752287259" fill="none" stroke="black" stroke-width="17.384000000018514" /><line stroke="black" stroke-width="17.384000000018514" x1="28083.66378756811" x2="28783.6637699536" y1="4936.263738447224" y2="4936.420774591234" /><path d="M 28218.65677132253,5036.657017792159 L 28218.54460264829,5536.657005210354 L 28718.54459006649,5536.769173884595 L 28718.6567587408,5036.769186466399 L 28218.65677132253,5036.657017792159" fill="none" stroke="black" stroke-width="17.384000000018514" /><line stroke="black" stroke-width="17.384000000018514" x1="28633.78715926982" x2="28583.77594366055" y1="4386.387137828924" y2="4436.375919703342" /><circle cx="27722.54629736304" cy="4798.574128300015" fill="none" r="200.0" stroke="black" stroke-width="17.384000000018514" /><path d="M 28783.66139071081,7404.040044362691 L 28783.45667947917,8104.040014429329 L 28083.45670941253,8103.83530319762 L 28083.66142064417,7403.835333130983" fill="none" stroke="black" stroke-width="17.384000000018514" /><path d="M 28583.66139926319,7403.981555439304 L 28583.51517695486,7903.981534058321 L 28083.51519833585,7903.835311749999" fill="none" stroke="black" stroke-width="17.384000000018514" /><path d="M 28633.66139712515,7403.996177670188 L 28633.50055258594,7953.996154151091 L 28083.50057610496,7953.835309611959" fill="none" stroke="black" stroke-width="17.384000000018514" /><line stroke="black" stroke-width="17.384000000018514" x1="28083.66142064417" x2="28783.66139071081" y1="7403.835333130983" y2="7404.040044362691" /><path d="M 28218.70626780725,7303.511829128902 L 28218.85249011564,6803.511850509958 L 28718.85246873466,6803.658072818207 L 28718.70624642634,7303.658051437296 L 28218.70626780725,7303.511829128902" fill="none" stroke="black" stroke-width="17.384000000018514" /><line stroke="black" stroke-width="17.384000000018514" x1="28633.50055258594" x2="28583.51517695486" y1="7953.996154151091" y2="7903.981534058321" /><circle cx="27784.01741292026" cy="7392.655984968651" fill="none" r="200.0" stroke="black" stroke-width="17.384000000018514" /><line stroke="black" stroke-width="17.384000000018514" x1="28783.90449308241" x2="28903.90446812952" y1="3888.21711139545" y2="3888.271832065828" /><line stroke="black" stroke-width="17.384000000018514" x1="27103.575835017" x2="27103.57583501758" y1="2234.334386946129" y2="2834.334386946129" /><line stroke="black" stroke-width="17.384000000018514" x1="27123.575835017" x2="27123.57583501758" y1="2234.334386946129" y2="2834.334386946129" /><line stroke="black" stroke-width="17.384000000018514" x1="27523.575835017" x2="27523.57583501758" y1="2234.334386945765" y2="2834.334386945766" /><line stroke="black" stroke-width="17.384000000018514" x1="27543.575835017" x2="27543.57583501758" y1="2234.334386945765" y2="2834.334386945766" /><line stroke="black" stroke-width="17.384000000018514" x1="27943.575835017" x2="27943.57583501758" y1="2234.334386945402" y2="2834.334386945329" /><line stroke="black" stroke-width="17.384000000018514" x1="27963.575835017" x2="27963.57583501758" y1="2234.334386945329" y2="2834.334386945329" /><line stroke="black" stroke-width="17.384000000018514" x1="28363.575835017" x2="28363.57583501758" y1="2234.334386944965" y2="2834.334386944965" /><line stroke="black" stroke-width="17.384000000018514" x1="28383.575835017" x2="28383.57583501758" y1="2234.334386944965" y2="2834.334386944892" /><line stroke="black" stroke-width="17.384000000018514" x1="27218.48020604517" x2="27218.48020604561" y1="10374.04001443086" y2="10824.04001443086" /><line stroke="black" stroke-width="17.384000000018514" x1="27668.48020604524" x2="27668.48020604561" y1="10374.04001443042" y2="10824.04001443042" /><line stroke="black" stroke-width="17.384000000018514" x1="27043.48020604524" x2="27843.48020604524" y1="10374.040014431" y2="10374.04001443028" /><line stroke="black" stroke-width="17.384000000018514" x1="17855.39962372885" x2="17855.3996202433" y1="9979.046002134119" y2="10229.04003377443" /><path d="M 17855.26230058263,10843.788578565003 A 2586.068227403948,2586.068227403948 0 0 1 16698.075012683956,13124.893715774258" fill="none" stroke="black" stroke-width="17.384000000018514" /><path d="M 378.5758010069198,604.0400429635333 L 378.5758010100485,1379.040042959677 L 78.57580139756601,1379.040042960841 L 78.57580136358729,2879.040042966371 L 378.5758009625365,2879.040042965134 L 378.5758009657379,3679.040042958004 L 78.57580134554291,3679.040042951237 L 78.57580091764385,5179.040042964698 L 378.5758009175711,5179.040042970591 L 378.5758009208453,5979.040042956403 L 78.57580129351982,5979.04004295051 L 78.5758008728967,7479.04004295604 L 303.5758349927723,7479.040014436432 L 303.575834977129,8279.040014429302 L 78.57580124149672,8279.040042955967 L 78.5758013590762,9979.040042961424 L 378.5758011158409,9979.04004296026 L 378.5758009567157,10779.04004295306 L 78.57580119733166,10779.04004295429 L 78.57580131491113,12479.04004295982 L 378.5758010716031,12479.04004295859 L 378.5758009125507,13279.04004295146 L 78.57580129686676,13279.04004295269 L 78.57580141444623,14979.04004295815 L 378.5758011711382,14979.04004295698 L 378.5758010140503,16279.04004296623 L 362.0198225733457,16279.04004296624 L 8028.236465849059,17829.04001443579 L 23603.57583499037,17829.04001443458 L 23603.57583498979,17129.04001443268 L 23723.57583498979,17129.04001443278 L 23723.57583499037,17829.04001444072 L 27733.5758350309,17829.04001443683" fill="none" stroke="black" stroke-width="17.384000000018514" /><path d="M 21593.18970808057,1449.040014480915 L 21473.18970808057,1449.040014480988 L 21473.18977853403,604.0400144363134 L 16378.57583498382,604.0400144411883 L 16378.57583498455,1329.040014477204 L 15648.57583498382,1329.04001447815" fill="none" stroke="black" stroke-width="17.384000000018514" /><line stroke="black" stroke-width="17.384000000018514" x1="-296.4241650125482" x2="-296.4241650063" y1="8229.040014433485" y2="15529.04001443719" /><path d="M 7603.575834984915,8229.04001443334 L 8303.575834984842,8229.040014432758 L 8303.57583498506,7529.040014432976 L 7603.575834984696,7529.040014433849 Z" fill="none" stroke="black" stroke-width="17.384000000018514" /><path d="M 7603.575834986952,16229.04001443661 L 8303.575834987098,16229.04001443734 L 8303.575834987389,15529.04001443756 L 7603.575834986734,15529.04001443712 Z" fill="none" stroke="black" stroke-width="17.384000000018514" /><path d="M 14178.57580117114,14929.04001443734 L 1378.575801171138,14929.04001443734" fill="none" stroke="black" stroke-width="17.384000000018514" /><path d="M 14178.57580117114,8829.040014433049 L 1378.575801171138,8829.040014433049" fill="none" stroke="black" stroke-width="17.384000000018514" /><path d="M 1378.575801171138,14929.04001443734 L 1378.575801171138,8829.040014433049" fill="none" stroke="black" stroke-width="17.384000000018514" /><path d="M 14178.57580117114,14929.04001443734 L 14178.57580117114,8829.040014433049" fill="none" stroke="black" stroke-width="17.384000000018514" /><path d="M 14128.57580117114,14879.04001443734 L 1428.575801171139,14879.04001443734" fill="none" stroke="black" stroke-width="17.384000000018514" /><path d="M 1428.575801171138,14879.04001443734 L 1428.575801171138,8879.040014433049" fill="none" stroke="black" stroke-width="17.384000000018514" /><path d="M 14128.57580117114,8879.040014433049 L 1428.575801171139,8879.040014433049" fill="none" stroke="black" stroke-width="17.384000000018514" /><path d="M 14128.57580117114,14879.04001443734 L 14128.57580117114,8879.040014433049" fill="none" stroke="black" stroke-width="17.384000000018514" /><path d="M 31703.57583501547,604.0400144265313 L 28903.57583506269,604.0403389036442" fill="none" stroke="black" stroke-width="17.384000000018514" /><path d="M 15603.57583498601,7909.040014431293 L 15603.57583498608,8029.040014431293 L 15483.57583498608,8029.040014431439 L 15483.57583498593,7909.040014431439 Z" fill="none" stroke="black" stroke-width="17.384000000018514" /><line stroke="black" stroke-width="17.384000000018514" x1="21513.18970808472" x2="21513.18970808625" y1="5959.039148737517" y2="7219.039148737517" /><line stroke="black" stroke-width="17.384000000018514" x1="21513.18970808312" x2="21513.18970808458" y1="4459.039148737514" y2="5839.039148737514" /><line stroke="black" stroke-width="17.384000000018514" x1="21513.18970808159" x2="21513.18970808305" y1="2959.039148737513" y2="4339.039148737514" /><line stroke="black" stroke-width="17.384000000018514" x1="21513.18970808057" x2="21513.18970808145" y1="1449.040014480928" y2="2839.039148737505" /><path d="M 8423.57583498477,7909.040014432612 L 8423.575834984842,8029.040014432612 L 8303.575834984842,8029.040014432758 L 8303.575834984696,7909.040014432758 Z" fill="none" stroke="black" stroke-width="17.384000000018514" /><line stroke="black" stroke-width="17.384000000018514" x1="8423.575834984806" x2="10098.57583498501" y1="7969.040014432612" y2="7969.040014432334" /><line stroke="black" stroke-width="17.384000000018514" x1="8423.575834984802" x2="10098.57583498498" y1="7949.040014432612" y2="7949.040014432334" /><path d="M 12013.57583498535,7909.040014432605 L 12013.57583498543,8029.040014432605 L 11893.57583498543,8029.04001443275 L 11893.57583498528,7909.04001443275 Z" fill="none" stroke="black" stroke-width="17.384000000018514" /><line stroke="black" stroke-width="17.384000000018514" x1="12013.57583498539" x2="13688.57583498581" y1="7969.040014432016" y2="7969.040014431737" /><line stroke="black" stroke-width="17.384000000018514" x1="12013.57583498538" x2="13688.57583498582" y1="7949.040014432016" y2="7949.040014431737" /><path d="M 10218.57583498501,7909.040014432607 L 10218.57583498508,8029.040014432607 L 10098.57583498508,8029.040014432752 L 10098.57583498493,7909.040014432752 Z" fill="none" stroke="black" stroke-width="17.384000000018514" /><line stroke="black" stroke-width="17.384000000018514" x1="10218.57583498504" x2="11893.57583498535" y1="7969.040014432314" y2="7969.040014432036" /><line stroke="black" stroke-width="17.384000000018514" x1="10218.57583498503" x2="11893.57583498533" y1="7949.040014432314" y2="7949.040014432036" /><path d="M 13688.57583498584,7909.040014432607 L 13688.57583498577,8029.040014432607 L 13808.57583498577,8029.040014432752 L 13808.57583498592,7909.040014432752 Z" fill="none" stroke="black" stroke-width="17.384000000018514" /><line stroke="black" stroke-width="17.384000000018514" x1="13808.57583498584" x2="15483.57583498604" y1="7969.040014431717" y2="7969.040014431439" /><line stroke="black" stroke-width="17.384000000018514" x1="13808.57583498587" x2="15483.57583498604" y1="7949.040014431717" y2="7949.040014431439" /><path d="M 303.5758349837506,7909.040014431293 L 303.5758349836779,8029.040014431293 L 423.5758349836779,8029.040014431439 L 423.5758349838234,7909.040014431439 Z" fill="none" stroke="black" stroke-width="17.384000000018514" /><path d="M 7483.575834984988,7909.040014432612 L 7483.575834984915,8029.040014432612 L 7603.575834984915,8029.040014432758 L 7603.57583498506,7909.040014432758 Z" fill="none" stroke="black" stroke-width="17.384000000018514" /><line stroke="black" stroke-width="17.384000000018514" x1="7483.575834984951" x2="5808.575834984751" y1="7969.040014432612" y2="7969.040014432334" /><line stroke="black" stroke-width="17.384000000018514" x1="5688.575834984715" x2="4013.575834984406" y1="7969.040014432314" y2="7969.040014432036" /><line stroke="black" stroke-width="17.384000000018514" x1="3893.575834984369" x2="2218.575834983951" y1="7969.040014432016" y2="7969.040014431737" /><line stroke="black" stroke-width="17.384000000018514" x1="2098.575834983914" x2="423.5758349837142" y1="7969.040014431717" y2="7969.040014431439" /><line stroke="black" stroke-width="17.384000000018514" x1="7483.575834984955" x2="5808.575834984775" y1="7949.040014432612" y2="7949.040014432334" /><line stroke="black" stroke-width="17.384000000018514" x1="5688.575834984727" x2="4013.575834984429" y1="7949.040014432314" y2="7949.040014432036" /><line stroke="black" stroke-width="17.384000000018514" x1="3893.575834984382" x2="2218.575834983938" y1="7949.040014432016" y2="7949.040014431737" /><line stroke="black" stroke-width="17.384000000018514" x1="2098.575834983891" x2="423.5758349837179" y1="7949.040014431717" y2="7949.040014431439" /><path d="M 3893.575834984406,7909.040014432605 L 3893.575834984333,8029.040014432605 L 4013.575834984333,8029.04001443275 L 4013.575834984478,7909.04001443275 Z" fill="none" stroke="black" stroke-width="17.384000000018514" /><path d="M 5688.575834984751,7909.040014432607 L 5688.575834984678,8029.040014432607 L 5808.575834984678,8029.040014432752 L 5808.575834984824,7909.040014432752 Z" fill="none" stroke="black" stroke-width="17.384000000018514" /><path d="M 2218.575834983914,7909.040014432607 L 2218.575834983987,8029.040014432607 L 2098.575834983987,8029.040014432752 L 2098.575834983842,7909.040014432752 Z" fill="none" stroke="black" stroke-width="17.384000000018514" /><path d="M 19182.87583499345,10349.04001442864 L 19182.87583599102,10229.04004480982 L 17855.3996202433,10229.04003377443 L 17855.39962232153,9979.046000460867" fill="none" stroke="black" stroke-width="17.384000000018514" /><path d="M 10378.24739774112,16014.28300581458 L 11276.11385645721,17215.88020217969 L 11876.9124546398,16766.94697282168 L 10979.04599592371,15565.3497764565 Z" fill="none" stroke="black" stroke-width="17.384000000018514" /><path d="M 11678.24739774243,16014.28300581232 L 12576.11385645852,17215.88020217743 L 13176.91245464111,16766.94697281942 L 12279.04599592503,15565.34977645424 Z" fill="none" stroke="black" stroke-width="17.384000000018514" /><path d="M 9078.247397739813,16014.28300581684 L 9976.113856455902,17215.88020218194 L 10576.91245463849,16766.94697282394 L 9679.045995922404,15565.34977645875 Z" fill="none" stroke="black" stroke-width="17.384000000018514" /><path d="M 5500.779244002546,17027.99554532185 A 1700.0,1700.0 0 0 1 5728.536057569001,17877.99554532185" fill="none" stroke="black" stroke-width="17.384000000018514" /><circle cx="4028.536057569001" cy="17877.99554532185" fill="none" r="2000.0" stroke="black" stroke-width="17.384000000018514" /><circle cx="4028.536057569001" cy="17877.99554532185" fill="none" r="2300.0" stroke="black" stroke-width="17.384000000018514" /><path d="M 5428.536057569001,17877.99554532185 L 6328.536057569001,17877.99554532185" fill="none" stroke="black" stroke-width="17.384000000018514" /><path d="M 5240.971622867213,17177.99554532185 L 6020.394486273208,16727.99554532185" fill="none" stroke="black" stroke-width="17.384000000018514" /><path d="M 17735.39960799189,10849.52750378319 L 16631.90869001506,13024.78368589586 L 15528.47535958568,15108.42770173695 L 15528.57583499947,16229.04001443676 L 16405.1758349893,16229.04001443581 L 16405.17583498913,16109.04001443581 L 16303.57583498914,16109.04001443596" fill="none" stroke="black" stroke-width="17.384000000018514" /><path d="M 22703.57583498921,16629.04001443147 L 22703.57583498935,16929.04001443417 L 22583.57583498972,16929.0400144342 L 22583.57583498943,16629.04001443155 L 17425.17583498902,16629.0400144369 L 17425.17583498931,16229.04001443479 L 17305.17583498924,16229.04001443494 L 17305.1758349891,16109.04001443487 L 17425.17583498917,16109.04001443472 L 17425.17583498575,13563.51795980779 L 17545.17583498582,13563.51795980772 L 17545.17583498888,16509.04001443683 L 20538.57583500005,16509.04001443369 L 20538.57583499699,13563.51795980466" fill="none" stroke="black" stroke-width="17.384000000018514" /><path d="M 26083.48020604314,8228.9764329337 L 26183.41885340201,8228.89693643162" fill="none" stroke="black" stroke-width="17.384000000018514" /><line stroke="black" stroke-width="17.384000000018514" x1="31703.57583502389" x2="31703.57583502588" y1="9204.04001442649" y2="11549.04001442627" /><line stroke="black" stroke-width="17.384000000018514" x1="32503.57583502992" x2="32503.5758350317" y1="16129.04001443078" y2="17829.04001442849" /><line stroke="black" stroke-width="17.384000000018514" x1="32503.57583498852" x2="32503.57583498921" y1="16129.04001443079" y2="17829.0400144322" /><path d="M -296.4241650129757,7529.040014433776 L -296.424165018042,604.0400144498412 L -296.4241650167323,354.0400144395821 L 21593.18979468536,354.0512237157112" fill="none" stroke="black" stroke-width="17.384000000018514" /><path d="M 28783.57583501547,604.0403528098061 L 25703.57583501547,604.0407097346302" fill="none" stroke="black" stroke-width="17.384000000018514" /><path d="M 31703.57583498295,829.0400144319478 L 31703.57583498259,1329.040014430857" fill="none" stroke="black" stroke-width="17.384000000018514" /><path d="M 31953.57583501824,829.0400144317659 L 32203.57583498281,829.040014431584 L 32203.57583498244,1329.040014430566 L 31953.57583501846,1329.040014430711 L 31953.57583502173,7629.040014425109 L 32753.575835021,7629.040014425109 L 32753.57583503199,18079.04001442824 L 8273.778232220728,18079.04001442824 L 646.4404921176902,20451.6951366018 L -296.4241650126003,20451.69513660189 L -296.4241650104291,16229.04001443756" fill="none" stroke="black" stroke-width="17.384000000018514" /><path d="M 32503.5758349872,12829.04001442191 L 32503.57583498832,15629.04001443089 L 32503.57583499023,12829.04001442191 L 31503.57583498921,12829.04001442351 L 31503.57583498921,12724.04001442671 L 30728.57583502704,12724.04001442744 L 30728.57583502697,12604.04001442744" fill="none" stroke="black" stroke-width="17.384000000018514" /><path d="M -46.42416500970148,20201.69513660104 L 470.036344278451,20201.69513660104 L -46.42416500984837,19085.14060056589 L -46.42416500939356,20201.69513660104" fill="none" stroke="black" stroke-width="17.384000000018514" /><path d="M 15648.51305298511,15528.82056577713 L 15648.47529355555,15107.68588116378 L 16698.13564521684,13124.85361515768" fill="none" stroke="black" stroke-width="17.384000000018514" /><path d="M 17735.39962231971,8229.040014428965 L 17735.39962232008,8579.034016391879 L 17855.39962232008,8579.034016391734 L 17855.39962522959,8229.040014428892" fill="none" stroke="black" stroke-width="17.384000000018514" /><path d="M 17735.39961018472,10849.5275495819 L 17735.39962232153,9979.046000461012 L 17855.39961068167,9979.046000460867" fill="none" stroke="black" stroke-width="17.384000000018514" /><path d="M 19182.87583499345,10349.04002936153 L 17855.39961857019,10349.04000981797 L 17855.39961163162,10846.69056789527" fill="none" stroke="black" stroke-width="17.384000000018514" /><path d="M 26703.57583501758,2834.334386946566 L 26703.5758350162,1522.280043425626 L 26583.5758350162,1522.280043425698 L 26583.57583501766,2905.597603716078 L 24253.87020750237,5235.303231235803 L 23583.57583501991,5235.303231236458 L 23583.57583502275,8228.874697204874 L 24713.56166308451,8229.13415015063" fill="none" stroke="black" stroke-width="17.384000000018514" /><path d="M 30653.57583501875,4024.040012348114 L 30653.57583501926,4574.040014180273 L 28903.5666808824,4574.040014182019 L 28903.88684132337,3888.271824027859" fill="none" stroke="black" stroke-width="17.384000000018514" /><path d="M 30653.56671490601,4024.040012348114 L 30803.56671490601,4024.040012347896 L 30803.56671490696,5004.040012347969 L 31703.56671490696,5004.040012347095" fill="none" stroke="black" stroke-width="17.384000000018514" /><path d="M 23483.57582434783,10349.04001442307 L 25963.48020604517,10349.04001442067 L 25963.48020604699,12294.04001443202 L 27733.5758350269,12294.04001443035 L 27733.57583502821,14026.54001443104 L 27733.5758350285,14179.04001443082 L 27853.5758350285,14179.04001443071 L 27853.57583502733,12724.0400144302 L 29878.57583502704,12724.04001442824 L 29878.57583502697,12604.04001442824" fill="none" stroke="black" stroke-width="17.384000000018514" /><path d="M 26083.48020604314,8228.9764329337 L 26083.48020604692,12174.04001443188 L 27733.57583502682,12174.04001443035 L 27733.57583502624,11624.04001443035 L 27883.57583502624,11624.0400144302 L 27883.57583502719,12604.04001443013 L 28783.57583502697,12604.04001442933 L 28783.5950019553,8229.038317029133" fill="none" stroke="black" stroke-width="17.384000000018514" /><path d="M 22963.48020604699,12243.66116555734 L 23048.88018671747,12243.69840113322 L 23048.88018671762,12363.64872975863 L 21755.96280159614,12363.70928199372 L 21755.96280159607,12243.70928199372 L 22728.57583499488,12243.66116555749 L 22728.57583499408,11369.18322017699" fill="none" stroke="black" stroke-width="17.384000000018514" /><path d="M 23483.57583498986,10229.0402497434 L 25963.48020604503,10229.0400144206 L 25963.48020604313,8228.900603696738 L 25613.75453627479,8228.869344924806 L 25613.67681576593,8103.869344929026 L 26183.47817292659,8104.040014431803 L 26183.41885340201,8228.89693643162" fill="none" stroke="black" stroke-width="17.384000000018514" /><path d="M 25703.57583501547,604.0400144322389 L 25703.57583501627,1634.040043426566 L 25583.57583501627,1634.040043426639 L 25583.57583501547,604.0400144323844" fill="none" stroke="black" stroke-width="17.384000000018514" /><path d="M 23703.5758350221,7529.040014429838 L 23703.57583502006,5355.303231236312 L 24303.57583498732,5355.30323123573 L 26703.54555106646,2955.333515152006" fill="none" stroke="black" stroke-width="17.384000000018514" /><path d="M 29878.57583502704,12664.04001442859 L 30728.57583502704,11814.04001442859 L 30728.57583502697,12664.04001442853" fill="none" stroke="black" stroke-width="17.384000000018514" /><path d="M 28783.56616240076,8229.038316902786 L 27083.41884343657,8229.030868539548 L 27083.42851605848,8104.032566066018 L 28783.5758350226,8104.040014429256" fill="none" stroke="black" stroke-width="17.384000000018514" /><path d="M 26703.57583501758,2834.334386946566 L 28783.57583501758,2834.334386944529 L 28783.57583501547,604.0400144293285" fill="none" stroke="black" stroke-width="17.384000000018514" /><path d="M 28783.92706285046,2988.236421012252 L 28783.72051474169,2954.334386944529 L 26703.57583501773,2954.334386946493" fill="none" stroke="black" stroke-width="17.384000000018514" /><path d="M 28783.87409120555,3888.217097531986 L 28783.48056862549,5748.863194196083 L 28903.46531767933,5748.863194195937 L 28903.57583501933,4683.965404820183 L 29803.57583501933,4683.965404819237 L 29803.57583502028,5663.96540481931 L 29953.57583502028,5663.965404819164 L 29953.57583501977,5114.040014180928 L 31703.57583501977,5114.040014179254 L 31703.57583502355,9084.040014426491 L 28903.68445831129,9084.040014429183 L 28903.45097327534,6648.858303796807 L 28783.45424177564,6648.85830379688 L 28783.45667947917,8104.040014429329" fill="none" stroke="black" stroke-width="17.384000000018514" /><path d="M 28903.92278149182,2988.236421012107 L 28903.57583501547,604.040014429183 L 31703.57583501547,604.0400144264909 L 31703.57583501969,5004.040012347095" fill="none" stroke="black" stroke-width="17.384000000018514" /><path d="M 32503.57583502501,11429.04001442555 L 31853.57583502784,11429.0400144262 L 31853.57583502486,8529.040014425182 L 32503.57583502195,8529.040014424527 L 32503.57583502501,11429.04001442565 L 32503.57583498546,8529.040014424525" fill="none" stroke="black" stroke-width="17.384000000018514" /><path d="M 16378.57583498455,1329.040014477204 L 15528.57583498382,1329.040014478078 L 15528.57583498113,604.0400144280916 L 378.5758349823677,604.0400144355949" fill="none" stroke="black" stroke-width="17.384000000018514" /><path d="M 24843.48020605005,15378.51795980517 L 23603.57583498797,15378.51795980641 L 23603.5758349887,16109.04001443373 L 22703.5758349887,16109.04001443457 L 22703.57583498623,13563.5179598024 L 21558.57583499707,13563.5179598035" fill="none" stroke="black" stroke-width="17.384000000018514" /><path d="M 31703.5758349879,15629.040014431 L 31503.57583499379,15629.04001443119 L 31503.57583499408,16009.04001443097" fill="none" stroke="black" stroke-width="17.384000000018514" /><path d="M 32503.57583499168,13729.04001442493 L 31503.57583499066,13729.04001442649 L 31503.57583499074,13779.04001442649 L 32503.57583499175,13779.04001442493" fill="none" stroke="black" stroke-width="17.384000000018514" /><path d="M 32503.57583499321,14679.04001442788 L 31503.57583499219,14679.04001442948 L 31503.57583499226,14729.04001442948 L 32503.57583499328,14729.04001442791" fill="none" stroke="black" stroke-width="17.384000000018514" /><path d="M 31703.57583498819,16129.04001443093 L 30703.57583498972,16129.04001443089 L 30703.57583498979,16166.54001443129 L 30583.57583498972,16166.54001443137 L 30583.57583498972,16129.04001443093 L 29053.57583502974,16129.04001443162 L 29053.57583502966,16009.04001443162 L 29618.57583501147,16009.04001443144 L 29618.57583501024,14149.04001442806 L 29053.57583502843,14149.0400144282 L 29053.57583502835,14029.04001442817 L 30138.57583501016,14029.04001442791 L 30138.57583501024,14149.04001442788 L 29738.57583501024,14149.04001442798 L 29738.57583501147,16009.0400144314 L 31503.57583499408,16009.04001443108" fill="none" stroke="black" stroke-width="17.384000000018514" /><path d="M 32503.57583498659,17004.04001443151 L 30703.57583498994,17004.04001443198 L 30703.57583499001,17041.54001443209 L 30583.57583499001,17041.54001443213 L 30583.57583498994,16916.54001443137 L 30703.57583498994,16916.54001443126 L 30703.57583498994,16954.04001443198 L 32503.57583498652,16954.04001443147" fill="none" stroke="black" stroke-width="17.384000000018514" /><path d="M 20928.57583499488,12243.66116555931 L 21005.962801596,12243.66116555909 L 21005.96280159614,12363.66116555923 L 20808.57583499503,12363.66116555938 L 20808.57583499408,11369.18322017998" fill="none" stroke="black" stroke-width="17.384000000018514" /><path d="M 22963.48020604699,12243.51795980204 L 22963.48020604612,11369.04001442285 L 24763.48020604619,11369.0400144198 L 24763.48020604699,12243.51795980029 L 23798.88004098317,12243.51795980131 L 23798.88004098332,12363.51795980131 L 24843.48020604714,12363.51795980022 L 24843.48020605014,15378.51795980517" fill="none" stroke="black" stroke-width="17.384000000018514" /><path d="M 24303.57583498819,15649.04001443326 L 24963.48020605034,15649.04001443264 L 24963.48020604604,11249.04001441812 L 19068.57583499401,11249.04001442802 L 19068.57583499539,12483.51795980633 L 19188.57583499561,12483.51795980619 L 19188.57583499415,11369.04001442788 L 20808.57583499408,11369.04001442504" fill="none" stroke="black" stroke-width="17.384000000018514" /><path d="M 21093.6714639646,11369.04001442467 L 20928.57583499401,11369.04001442489 L 20928.57583499488,12243.66116555931" fill="none" stroke="black" stroke-width="17.384000000018514" /><path d="M 22728.57583499488,12243.66116555749 L 22728.57583499408,11369.1832201767 L 20983.34976819631,11369.18322017969" fill="none" stroke="black" stroke-width="17.384000000018514" /><path d="M 24843.48020604801,13288.51795980164 L 23843.48020604648,13288.51795980266 L 23843.48020604655,13408.51795980262 L 24843.48020604815,13408.51795980168" fill="none" stroke="black" stroke-width="17.384000000018514" /><path d="M 24843.48020604903,14333.51795980306 L 23843.48020604743,14333.51795980404 L 23843.48020604757,14453.51795980408 L 24843.4802060491,14453.51795980306" fill="none" stroke="black" stroke-width="17.384000000018514" /><path d="M 16303.57583498597,8109.040014430517 L 17910.8824654244,8109.040014428747 L 17910.88246542448,8229.040014428747 L 16378.57583499183,8229.040014430493 L 15648.5758349911,8229.040014431293" fill="none" stroke="black" stroke-width="17.384000000018514" /></g></svg>