<?xml version="1.0" encoding="utf-8" ?>
<svg baseProfile="full" height="1259.10px" version="1.1" viewBox="0 0 4000.00 1259.10" width="4000.00px" xmlns="http://www.w3.org/2000/svg" xmlns:ev="http://www.w3.org/2001/xml-events" xmlns:xlink="http://www.w3.org/1999/xlink"><defs /><g transform="translate(-161224.67640014784,-88130.74152194045) scale(0.013815565013616991,-0.013815565013616991)"><path d="M 11951119.53005467,-6462032.500000001 L 11957333.81426978,-6468263.993525054 L 11979256.42212075,-6448955.999671312" fill="none" stroke="black" stroke-width="144.764256693718" /><path d="M 11677979.42308539,-6387284.847354029 L 11688249.98069504,-6387284.847354029 L 11688249.98069504,-6426419.796641136 L 11677979.42308539,-6426419.796641136 Z" fill="none" stroke="black" stroke-width="144.764256693718" /><line stroke="black" stroke-width="144.764256693718" x1="11678401.38738002" x2="11678401.38738002" y1="-6391312.444659976" y2="-6391612.444659975" /><line stroke="black" stroke-width="144.764256693718" x1="11678401.38738002" x2="11682099.25648814" y1="-6391612.444659975" y2="-6391612.444659976" /><line stroke="black" stroke-width="144.764256693718" x1="11678401.38738002" x2="11682099.25648814" y1="-6391312.444659976" y2="-6391312.444659976" /><line stroke="black" stroke-width="144.764256693718" x1="11678401.38738002" x2="11678401.38738002" y1="-6392478.725596981" y2="-6392778.72559698" /><line stroke="black" stroke-width="144.764256693718" x1="11682099.25648814" x2="11682099.25648814" y1="-6392478.725596981" y2="-6392778.725596981" /><line stroke="black" stroke-width="144.764256693718" x1="11678401.38738002" x2="11682099.25648814" y1="-6392778.72559698" y2="-6392778.725596981" /><line stroke="black" stroke-width="144.764256693718" x1="11678401.38738002" x2="11682099.25648814" y1="-6392478.725596981" y2="-6392478.725596981" /><line stroke="black" stroke-width="144.764256693718" x1="11678401.38738002" x2="11678401.38738002" y1="-6393645.006533986" y2="-6393945.006533985" /><line stroke="black" stroke-width="144.764256693718" x1="11682099.25648814" x2="11682099.25648814" y1="-6393645.006533986" y2="-6393945.006533986" /><line stroke="black" stroke-width="144.764256693718" x1="11678401.38738002" x2="11682099.25648814" y1="-6393945.006533985" y2="-6393945.006533986" /><line stroke="black" stroke-width="144.764256693718" x1="11678401.38738002" x2="11682099.25648814" y1="-6393645.006533986" y2="-6393645.006533986" /></g></svg>